<?xml version="1.0" encoding="UTF-8"?>
<svg id="Capa_1" data-name="Capa 1" xmlns="http://www.w3.org/2000/svg" viewBox="0 0 512 512">
  <defs>
    <style>
      .cls-1 {
        fill: #564b42;
      }
    </style>
  </defs>
  <path class="cls-1" d="M332.77,259.34c.01,12.76-3.58,27.6-12.54,40.85-10.74,15.88-25.75,25.72-44.29,30.01-18.76,4.35-37.1,2.59-54.56-5.66-17.83-8.42-29.82-22.29-36.63-40.69-4.43-11.97-5.85-24.42-5.45-37.1,.39-12.48,2.25-24.71,6.67-36.47,.89-2.36,1.95-4.65,3.1-6.9,.45-.89,.8-.95,1.64-.49,4.03,2.18,8.3,2.92,12.83,1.9,3.55-.81,6.15-3.03,8.62-5.56,6-6.18,12.28-12.05,20.31-15.58,6.01-2.64,12.41-3.52,18.92-3.9,9.41-.55,18.78-.45,27.95,1.97,26.95,7.11,43.9,24.2,50.76,51.21,1.94,7.65,2.65,15.45,2.69,26.4Zm-51.74,54.63c2.72-1.09,5.12-2.27,7.42-3.63,19.63-11.66,30.67-28.78,31.98-51.64,.89-15.44-3.86-29.41-13.15-41.72-10-13.25-23.3-20.7-40.01-21.72-5.74-.35-11.49,.08-17.23,.01-9.73-.12-18.12,3.27-25.44,9.52-2.67,2.28-5.09,4.8-7.35,7.83h1.17c7.23,0,14.46,0,21.68,0,3.59,0,7.16,.26,10.68,1.02,4.39,.94,8.51,2.49,11.67,5.85,4.14,4.4,4.82,9.81,4.15,15.48-.63,5.34-3.12,9.65-7.72,12.63-.18,.12-.52,.22-.29,.67h1.68c16.41,0,32.82,0,49.22,0,.37,0,.74,.03,1.11,0,.78-.06,.87,.29,.68,.95-.85,3.09-1.68,6.19-2.51,9.28-.16,.59-.34,1.04-1.14,.98-.69-.05-1.16-.08-1.33-.94-.3-1.57-1.39-2.52-2.79-3.2-2.04-.99-4.24-1.23-6.45-1.32-3.64-.14-7.28-.21-10.77,1.1-1.09,.41-1.61,1.01-1.6,2.32,.07,8.75,.04,17.5,.03,26.25,0,.84-.07,1.69-.21,2.51-.28,1.65-1.03,3.01-2.77,3.5-.68,.19-.71,.58-.71,1.15,.01,7.64,0,15.28,0,23.13Zm-49.82-61.52c0,12.07,0,23.93-.03,35.79,0,.52,.49,1.48-.44,1.56-.84,.07-1.84,.52-2.58-.53-1.45-2.06-3.46-3.52-5.61-4.78-2.71-1.58-5.58-2.72-8.75-2.93-.57-.04-1.1-.14-.95-.9,.1-.47-.41-1.18,.61-1.32,2.92-.38,4.26-2.46,5.12-4.97,1.03-3.03,1.19-6.2,1.21-9.36,.06-12.86,.05-25.72,0-38.58-.01-3.16-.35-6.31-1.96-9.16-.92-1.62-2.15-2.69-4.16-2.54-1,.08-2,.08-3,.13-3.62,.2-6.73,1.57-9.35,4.06-3.23,3.05-5.16,6.88-6.48,11.03-3.1,9.71-3.44,19.66-2.24,29.69,2.06,17.12,8.7,32.11,21.22,44.18,14.51,13.99,31.81,18.63,51.52,14.78,2.27-.44,3.8-1.73,4.81-3.71,1.22-2.38,1.72-4.95,1.97-7.59,.47-4.94,.18-9.9,.24-14.85,.04-2.76-.02-3-2.68-2.71-4.28,.47-7.57-1.17-10.46-4.06-.6-.6-1.24-1.14-1.83-1.74-8.8-8.85-16.41-18.66-23.39-28.97-.68-1-1.39-1.95-2.78-2.54Zm-1.79-18.42v7.27c0,3.7,0,3.78,3.73,4.13,5.11,.48,10.21,.57,15.18-1.06,3.25-1.07,6.01-2.8,7.67-5.92,3.82-7.21,.48-15.74-7.23-18.42-1.09-.38-2.21-.69-3.35-.91-4.13-.79-8.16-.97-11.65,2.05-.91,.79-2.08,1.3-3.25,1.55-.96,.2-1.13,.65-1.12,1.51,.04,3.27,.02,6.53,.02,9.8Zm42.95,48.94c0-7.5-.03-14.49,.03-21.48,.01-1.39-.07-2.47-1.67-2.93-.56-.16-1.01-.73-1.51-1.12-2.21-1.75-4.56-3.26-7.49-3.36-2.1-.07-4.22-.03-6.32,.1-2.15,.13-4.3,.37-6.23,1.51-1.1,.65-1.37,1.24-.45,2.43,5.35,6.86,11.19,13.27,17.48,19.28,1.89,1.8,3.87,3.51,6.15,5.57Z"/>
  <rect class="cls-1" x="141.25" y=".02" width="17.65" height="17.65"/>
  <rect class="cls-1" x="211.87" y=".02" width="17.65" height="17.65"/>
  <rect class="cls-1" x="229.52" y=".02" width="17.65" height="17.65"/>
  <rect class="cls-1" x="264.83" y=".02" width="17.65" height="17.65"/>
  <rect class="cls-1" x="317.79" y=".02" width="17.65" height="17.65"/>
  <rect class="cls-1" x="335.44" y=".02" width="17.65" height="17.65"/>
  <rect class="cls-1" x="141.25" y="17.67" width="17.65" height="17.65"/>
  <rect class="cls-1" x="211.87" y="17.67" width="17.65" height="17.65"/>
  <rect class="cls-1" x="247.17" y="17.67" width="17.65" height="17.65"/>
  <rect class="cls-1" x="282.48" y="17.67" width="17.65" height="17.65"/>
  <rect class="cls-1" x="300.13" y="17.67" width="17.65" height="17.65"/>
  <rect class="cls-1" x="353.1" y="17.67" width="17.65" height="17.65"/>
  <rect class="cls-1" x="141.25" y="35.33" width="17.65" height="17.65"/>
  <rect class="cls-1" x="158.9" y="35.33" width="17.65" height="17.65"/>
  <rect class="cls-1" x="211.87" y="35.33" width="17.65" height="17.65"/>
  <rect class="cls-1" x="229.52" y="35.33" width="17.65" height="17.65"/>
  <rect class="cls-1" x="264.83" y="35.33" width="17.65" height="17.65"/>
  <rect class="cls-1" x="335.44" y="35.33" width="17.65" height="17.65"/>
  <rect class="cls-1" x="176.56" y="52.98" width="17.65" height="17.65"/>
  <rect class="cls-1" x="229.52" y="52.98" width="17.65" height="17.65"/>
  <rect class="cls-1" x="247.17" y="52.98" width="17.65" height="17.65"/>
  <rect class="cls-1" x="300.13" y="52.98" width="17.65" height="17.65"/>
  <rect class="cls-1" x="317.79" y="52.98" width="17.65" height="17.65"/>
  <rect class="cls-1" x="353.1" y="52.98" width="17.65" height="17.65"/>
  <rect class="cls-1" x="158.9" y="70.63" width="17.65" height="17.65"/>
  <rect class="cls-1" x="176.56" y="70.63" width="17.65" height="17.65"/>
  <rect class="cls-1" x="211.87" y="70.63" width="17.65" height="17.65"/>
  <rect class="cls-1" x="229.52" y="70.63" width="17.65" height="17.65"/>
  <rect class="cls-1" x="317.79" y="70.63" width="17.65" height="17.65"/>
  <rect class="cls-1" x="141.25" y="88.29" width="17.65" height="17.65"/>
  <rect class="cls-1" x="158.9" y="88.29" width="17.65" height="17.65"/>
  <rect class="cls-1" x="176.56" y="88.29" width="17.65" height="17.65"/>
  <rect class="cls-1" x="211.87" y="88.29" width="17.65" height="17.65"/>
  <rect class="cls-1" x="229.52" y="88.29" width="17.65" height="17.65"/>
  <rect class="cls-1" x="247.17" y="88.29" width="17.65" height="17.65"/>
  <rect class="cls-1" x="264.83" y="88.29" width="17.65" height="17.65"/>
  <rect class="cls-1" x="317.79" y="88.29" width="17.65" height="17.65"/>
  <rect class="cls-1" x="353.1" y="88.29" width="17.65" height="17.65"/>
  <rect class="cls-1" x="141.25" y="105.94" width="17.65" height="17.65"/>
  <rect class="cls-1" x="176.56" y="105.94" width="17.65" height="17.65"/>
  <rect class="cls-1" x="211.87" y="105.94" width="17.65" height="17.65"/>
  <rect class="cls-1" x="247.17" y="105.94" width="17.65" height="17.65"/>
  <rect class="cls-1" x="282.48" y="105.94" width="17.65" height="17.65"/>
  <rect class="cls-1" x="317.79" y="105.94" width="17.65" height="17.65"/>
  <rect class="cls-1" x="353.1" y="105.94" width="17.65" height="17.65"/>
  <rect class="cls-1" x="141.25" y="123.6" width="17.65" height="17.65"/>
  <rect class="cls-1" x="158.9" y="123.6" width="17.65" height="17.65"/>
  <rect class="cls-1" x="229.52" y="123.6" width="17.65" height="17.65"/>
  <rect class="cls-1" x="264.83" y="123.6" width="17.65" height="17.65"/>
  <rect class="cls-1" x="282.48" y="123.6" width="17.65" height="17.65"/>
  <rect class="cls-1" x="317.79" y="123.6" width="17.65" height="17.65"/>
  <rect class="cls-1" x="335.44" y="123.6" width="17.65" height="17.65"/>
  <rect class="cls-1" x="353.1" y="123.6" width="17.65" height="17.65"/>
  <rect class="cls-1" x="35.33" y="141.25" width="17.65" height="17.65"/>
  <rect class="cls-1" x="52.98" y="141.25" width="17.65" height="17.65"/>
  <rect class="cls-1" x="70.63" y="141.25" width="17.65" height="17.65"/>
  <rect class="cls-1" x="105.94" y="141.25" width="17.65" height="17.65"/>
  <rect class="cls-1" x="141.25" y="141.25" width="17.65" height="17.65"/>
  <rect class="cls-1" x="158.9" y="141.25" width="17.65" height="17.65"/>
  <rect class="cls-1" x="176.56" y="141.25" width="17.65" height="17.65"/>
  <rect class="cls-1" x="194.21" y="141.25" width="17.65" height="17.65"/>
  <rect class="cls-1" x="282.48" y="141.25" width="17.65" height="17.65"/>
  <rect class="cls-1" x="317.79" y="141.25" width="17.65" height="17.65"/>
  <rect class="cls-1" x="370.75" y="141.25" width="17.65" height="17.65"/>
  <rect class="cls-1" x="388.4" y="141.25" width="17.65" height="17.65"/>
  <rect class="cls-1" x="406.06" y="141.25" width="17.65" height="17.65"/>
  <rect class="cls-1" x="459.02" y="141.25" width="17.65" height="17.65"/>
  <rect class="cls-1" x="476.67" y="141.25" width="17.65" height="17.65"/>
  <rect class="cls-1" x="494.33" y="141.25" width="17.65" height="17.65"/>
  <rect class="cls-1" x=".02" y="158.9" width="17.65" height="17.65"/>
  <rect class="cls-1" x="17.67" y="158.9" width="17.65" height="17.65"/>
  <rect class="cls-1" x="35.33" y="158.9" width="17.65" height="17.65"/>
  <rect class="cls-1" x="52.98" y="158.9" width="17.65" height="17.65"/>
  <rect class="cls-1" x="70.63" y="158.9" width="17.65" height="17.65"/>
  <rect class="cls-1" x="123.6" y="158.9" width="17.65" height="17.65"/>
  <rect class="cls-1" x="141.25" y="158.9" width="17.65" height="17.65"/>
  <rect class="cls-1" x="353.1" y="158.9" width="17.65" height="17.65"/>
  <rect class="cls-1" x="370.75" y="158.9" width="17.65" height="17.65"/>
  <rect class="cls-1" x="388.4" y="158.9" width="17.65" height="17.65"/>
  <rect class="cls-1" x="423.71" y="158.9" width="17.65" height="17.65"/>
  <rect class="cls-1" x="476.67" y="158.9" width="17.65" height="17.65"/>
  <rect class="cls-1" x="494.33" y="158.9" width="17.65" height="17.65"/>
  <rect class="cls-1" x="17.67" y="176.56" width="17.65" height="17.65"/>
  <rect class="cls-1" x="52.98" y="176.56" width="17.65" height="17.65"/>
  <rect class="cls-1" x="70.63" y="176.56" width="17.65" height="17.65"/>
  <rect class="cls-1" x="88.29" y="176.56" width="17.65" height="17.65"/>
  <rect class="cls-1" x="105.94" y="176.56" width="17.65" height="17.65"/>
  <rect class="cls-1" x="459.02" y="176.56" width="17.65" height="17.65"/>
  <rect class="cls-1" x="52.98" y="194.21" width="17.65" height="17.65"/>
  <rect class="cls-1" x="70.63" y="194.21" width="17.65" height="17.65"/>
  <rect class="cls-1" x="88.29" y="194.21" width="17.65" height="17.65"/>
  <rect class="cls-1" x="123.6" y="194.21" width="17.65" height="17.65"/>
  <rect class="cls-1" x="353.1" y="194.21" width="17.65" height="17.65"/>
  <rect class="cls-1" x="388.4" y="194.21" width="17.65" height="17.65"/>
  <rect class="cls-1" x="406.06" y="194.21" width="17.65" height="17.65"/>
  <rect class="cls-1" x="423.71" y="194.21" width="17.65" height="17.65"/>
  <rect class="cls-1" x="441.37" y="194.21" width="17.65" height="17.65"/>
  <rect class="cls-1" x="459.02" y="194.21" width="17.65" height="17.65"/>
  <rect class="cls-1" x=".02" y="211.87" width="17.65" height="17.65"/>
  <rect class="cls-1" x="17.67" y="211.87" width="17.65" height="17.65"/>
  <rect class="cls-1" x="88.29" y="211.87" width="17.65" height="17.65"/>
  <rect class="cls-1" x="105.94" y="211.87" width="17.65" height="17.65"/>
  <rect class="cls-1" x="123.6" y="211.87" width="17.65" height="17.65"/>
  <rect class="cls-1" x="353.1" y="211.87" width="17.65" height="17.65"/>
  <rect class="cls-1" x="370.75" y="211.87" width="17.65" height="17.65"/>
  <rect class="cls-1" x="423.71" y="211.87" width="17.65" height="17.65"/>
  <rect class="cls-1" x="459.02" y="211.87" width="17.65" height="17.65"/>
  <rect class="cls-1" x="476.67" y="211.87" width="17.65" height="17.65"/>
  <rect class="cls-1" x="123.6" y="229.52" width="17.65" height="17.65"/>
  <rect class="cls-1" x="141.25" y="229.52" width="17.65" height="17.65"/>
  <rect class="cls-1" x="353.1" y="229.52" width="17.65" height="17.65"/>
  <rect class="cls-1" x="388.4" y="229.52" width="17.65" height="17.65"/>
  <rect class="cls-1" x="423.71" y="229.52" width="17.65" height="17.65"/>
  <rect class="cls-1" x="441.37" y="229.52" width="17.65" height="17.65"/>
  <rect class="cls-1" x="494.33" y="229.52" width="17.65" height="17.65"/>
  <rect class="cls-1" x="52.98" y="247.17" width="17.65" height="17.65"/>
  <rect class="cls-1" x="88.29" y="247.17" width="17.65" height="17.65"/>
  <rect class="cls-1" x="105.94" y="247.17" width="17.65" height="17.65"/>
  <rect class="cls-1" x="123.6" y="247.17" width="17.65" height="17.65"/>
  <rect class="cls-1" x="141.25" y="247.17" width="17.65" height="17.65"/>
  <rect class="cls-1" x="406.06" y="247.17" width="17.65" height="17.65"/>
  <rect class="cls-1" x="459.02" y="247.17" width="17.65" height="17.65"/>
  <rect class="cls-1" x="494.33" y="247.17" width="17.65" height="17.65"/>
  <rect class="cls-1" x=".02" y="264.83" width="17.65" height="17.65"/>
  <rect class="cls-1" x="35.33" y="264.83" width="17.65" height="17.65"/>
  <rect class="cls-1" x="70.63" y="264.83" width="17.65" height="17.65"/>
  <rect class="cls-1" x="123.6" y="264.83" width="17.65" height="17.65"/>
  <rect class="cls-1" x="370.75" y="264.83" width="17.65" height="17.65"/>
  <rect class="cls-1" x="388.4" y="264.83" width="17.65" height="17.65"/>
  <rect class="cls-1" x="406.06" y="264.83" width="17.65" height="17.65"/>
  <rect class="cls-1" x="423.71" y="264.83" width="17.65" height="17.65"/>
  <rect class="cls-1" x="459.02" y="264.83" width="17.65" height="17.65"/>
  <rect class="cls-1" x="476.67" y="264.83" width="17.65" height="17.65"/>
  <rect class="cls-1" x="494.33" y="264.83" width="17.65" height="17.65"/>
  <rect class="cls-1" x=".02" y="282.48" width="17.65" height="17.65"/>
  <rect class="cls-1" x="17.67" y="282.48" width="17.65" height="17.65"/>
  <rect class="cls-1" x="88.29" y="282.48" width="17.65" height="17.65"/>
  <rect class="cls-1" x="105.94" y="282.48" width="17.65" height="17.65"/>
  <rect class="cls-1" x="123.6" y="282.48" width="17.65" height="17.65"/>
  <rect class="cls-1" x="406.06" y="282.48" width="17.65" height="17.65"/>
  <rect class="cls-1" x=".02" y="300.13" width="17.65" height="17.65"/>
  <rect class="cls-1" x="17.67" y="300.13" width="17.65" height="17.65"/>
  <rect class="cls-1" x="35.33" y="300.13" width="17.65" height="17.65"/>
  <rect class="cls-1" x="52.98" y="300.13" width="17.65" height="17.65"/>
  <rect class="cls-1" x="123.6" y="300.13" width="17.65" height="17.65"/>
  <rect class="cls-1" x="353.1" y="300.13" width="17.65" height="17.65"/>
  <rect class="cls-1" x="370.75" y="300.13" width="17.65" height="17.65"/>
  <rect class="cls-1" x="406.06" y="300.13" width="17.65" height="17.65"/>
  <rect class="cls-1" x="441.37" y="300.13" width="17.65" height="17.65"/>
  <rect class="cls-1" x="476.67" y="300.13" width="17.65" height="17.65"/>
  <rect class="cls-1" x=".02" y="317.79" width="17.65" height="17.65"/>
  <rect class="cls-1" x="70.63" y="317.79" width="17.65" height="17.65"/>
  <rect class="cls-1" x="105.94" y="317.79" width="17.65" height="17.65"/>
  <rect class="cls-1" x="123.6" y="317.79" width="17.65" height="17.65"/>
  <rect class="cls-1" x="353.1" y="317.79" width="17.65" height="17.65"/>
  <rect class="cls-1" x="370.75" y="317.79" width="17.65" height="17.65"/>
  <rect class="cls-1" x="459.02" y="317.79" width="17.65" height="17.65"/>
  <rect class="cls-1" x=".02" y="335.44" width="17.65" height="17.65"/>
  <rect class="cls-1" x="52.98" y="335.44" width="17.65" height="17.65"/>
  <rect class="cls-1" x="88.29" y="335.44" width="17.65" height="17.65"/>
  <rect class="cls-1" x="123.6" y="335.44" width="17.65" height="17.65"/>
  <rect class="cls-1" x="141.25" y="335.44" width="17.65" height="17.65"/>
  <rect class="cls-1" x="353.1" y="335.44" width="17.65" height="17.65"/>
  <rect class="cls-1" x="388.4" y="335.44" width="17.65" height="17.65"/>
  <rect class="cls-1" x="423.71" y="335.44" width="17.65" height="17.65"/>
  <rect class="cls-1" x="441.37" y="335.44" width="17.65" height="17.65"/>
  <rect class="cls-1" x="476.67" y="335.44" width="17.65" height="17.65"/>
  <rect class="cls-1" x="494.33" y="335.44" width="17.65" height="17.65"/>
  <rect class="cls-1" x=".02" y="353.1" width="17.65" height="17.65"/>
  <rect class="cls-1" x="35.33" y="353.1" width="17.65" height="17.65"/>
  <rect class="cls-1" x="52.98" y="353.1" width="17.65" height="17.65"/>
  <rect class="cls-1" x="105.94" y="353.1" width="17.65" height="17.65"/>
  <rect class="cls-1" x="194.21" y="353.1" width="17.65" height="17.65"/>
  <rect class="cls-1" x="211.87" y="353.1" width="17.65" height="17.65"/>
  <rect class="cls-1" x="229.52" y="353.1" width="17.65" height="17.65"/>
  <rect class="cls-1" x="317.79" y="353.1" width="17.65" height="17.65"/>
  <rect class="cls-1" x="353.1" y="353.1" width="17.65" height="17.65"/>
  <rect class="cls-1" x="370.75" y="353.1" width="17.65" height="17.65"/>
  <rect class="cls-1" x="388.4" y="353.1" width="17.65" height="17.65"/>
  <rect class="cls-1" x="406.06" y="353.1" width="17.65" height="17.65"/>
  <rect class="cls-1" x="423.71" y="353.1" width="17.65" height="17.65"/>
  <rect class="cls-1" x="476.67" y="353.1" width="17.65" height="17.65"/>
  <rect class="cls-1" x="494.33" y="353.1" width="17.65" height="17.65"/>
  <rect class="cls-1" x="141.25" y="370.75" width="17.65" height="17.65"/>
  <rect class="cls-1" x="211.87" y="370.75" width="17.65" height="17.65"/>
  <rect class="cls-1" x="229.52" y="370.75" width="17.65" height="17.65"/>
  <rect class="cls-1" x="247.17" y="370.75" width="17.65" height="17.65"/>
  <rect class="cls-1" x="264.83" y="370.75" width="17.65" height="17.65"/>
  <rect class="cls-1" x="282.48" y="370.75" width="17.65" height="17.65"/>
  <rect class="cls-1" x="317.79" y="370.75" width="17.65" height="17.65"/>
  <rect class="cls-1" x="335.44" y="370.75" width="17.65" height="17.65"/>
  <rect class="cls-1" x="353.1" y="370.75" width="17.65" height="17.65"/>
  <rect class="cls-1" x="423.71" y="370.75" width="17.65" height="17.65"/>
  <rect class="cls-1" x="441.37" y="370.75" width="17.65" height="17.65"/>
  <rect class="cls-1" x="494.33" y="370.75" width="17.65" height="17.65"/>
  <rect class="cls-1" x="317.79" y="388.4" width="17.65" height="17.65"/>
  <rect class="cls-1" x="335.44" y="388.4" width="17.65" height="17.65"/>
  <rect class="cls-1" x="353.1" y="388.4" width="17.65" height="17.65"/>
  <rect class="cls-1" x="388.4" y="388.4" width="17.65" height="17.65"/>
  <rect class="cls-1" x="423.71" y="388.4" width="17.65" height="17.65"/>
  <rect class="cls-1" x="441.37" y="388.4" width="17.65" height="17.65"/>
  <rect class="cls-1" x="459.02" y="388.4" width="17.65" height="17.65"/>
  <rect class="cls-1" x="476.67" y="388.4" width="17.65" height="17.65"/>
  <rect class="cls-1" x="158.9" y="406.06" width="17.65" height="17.65"/>
  <rect class="cls-1" x="176.56" y="406.06" width="17.65" height="17.65"/>
  <rect class="cls-1" x="247.17" y="406.06" width="17.65" height="17.65"/>
  <rect class="cls-1" x="300.13" y="406.06" width="17.65" height="17.65"/>
  <rect class="cls-1" x="335.44" y="406.06" width="17.65" height="17.65"/>
  <rect class="cls-1" x="353.1" y="406.06" width="17.65" height="17.65"/>
  <rect class="cls-1" x="423.71" y="406.06" width="17.65" height="17.65"/>
  <rect class="cls-1" x="441.37" y="406.06" width="17.65" height="17.65"/>
  <rect class="cls-1" x="476.67" y="406.06" width="17.65" height="17.65"/>
  <rect class="cls-1" x="494.33" y="406.06" width="17.65" height="17.65"/>
  <rect class="cls-1" x="141.25" y="423.71" width="17.65" height="17.65"/>
  <rect class="cls-1" x="176.56" y="423.71" width="17.65" height="17.65"/>
  <rect class="cls-1" x="194.21" y="423.71" width="17.65" height="17.65"/>
  <rect class="cls-1" x="211.87" y="423.71" width="17.65" height="17.65"/>
  <rect class="cls-1" x="229.52" y="423.71" width="17.65" height="17.65"/>
  <rect class="cls-1" x="247.17" y="423.71" width="17.65" height="17.65"/>
  <rect class="cls-1" x="264.83" y="423.71" width="17.65" height="17.65"/>
  <rect class="cls-1" x="282.48" y="423.71" width="17.65" height="17.65"/>
  <rect class="cls-1" x="317.79" y="423.71" width="17.65" height="17.65"/>
  <rect class="cls-1" x="335.44" y="423.71" width="17.65" height="17.65"/>
  <rect class="cls-1" x="353.1" y="423.71" width="17.65" height="17.65"/>
  <rect class="cls-1" x="370.75" y="423.71" width="17.65" height="17.65"/>
  <rect class="cls-1" x="388.4" y="423.71" width="17.65" height="17.65"/>
  <rect class="cls-1" x="406.06" y="423.71" width="17.65" height="17.65"/>
  <rect class="cls-1" x="423.71" y="423.71" width="17.65" height="17.65"/>
  <rect class="cls-1" x="141.25" y="441.37" width="17.65" height="17.65"/>
  <rect class="cls-1" x="158.9" y="441.37" width="17.65" height="17.65"/>
  <rect class="cls-1" x="211.87" y="441.37" width="17.65" height="17.65"/>
  <rect class="cls-1" x="229.52" y="441.37" width="17.65" height="17.65"/>
  <rect class="cls-1" x="300.13" y="441.37" width="17.65" height="17.65"/>
  <rect class="cls-1" x="317.79" y="441.37" width="17.65" height="17.65"/>
  <rect class="cls-1" x="353.1" y="441.37" width="17.65" height="17.65"/>
  <rect class="cls-1" x="370.75" y="441.37" width="17.65" height="17.65"/>
  <rect class="cls-1" x="388.4" y="441.37" width="17.65" height="17.65"/>
  <rect class="cls-1" x="423.71" y="441.37" width="17.65" height="17.65"/>
  <rect class="cls-1" x="441.37" y="441.37" width="17.65" height="17.65"/>
  <rect class="cls-1" x="141.25" y="459.02" width="17.65" height="17.65"/>
  <rect class="cls-1" x="158.9" y="459.02" width="17.65" height="17.65"/>
  <rect class="cls-1" x="194.21" y="459.02" width="17.65" height="17.65"/>
  <rect class="cls-1" x="211.87" y="459.02" width="17.65" height="17.65"/>
  <rect class="cls-1" x="229.52" y="459.02" width="17.65" height="17.65"/>
  <rect class="cls-1" x="247.17" y="459.02" width="17.65" height="17.65"/>
  <rect class="cls-1" x="300.13" y="459.02" width="17.65" height="17.65"/>
  <rect class="cls-1" x="317.79" y="459.02" width="17.65" height="17.65"/>
  <rect class="cls-1" x="370.75" y="459.02" width="17.65" height="17.65"/>
  <rect class="cls-1" x="388.4" y="459.02" width="17.65" height="17.65"/>
  <rect class="cls-1" x="406.06" y="459.02" width="17.65" height="17.65"/>
  <rect class="cls-1" x="423.71" y="459.02" width="17.65" height="17.65"/>
  <rect class="cls-1" x="459.02" y="459.02" width="17.65" height="17.65"/>
  <rect class="cls-1" x="476.67" y="459.02" width="17.65" height="17.65"/>
  <rect class="cls-1" x="158.9" y="476.67" width="17.65" height="17.65"/>
  <rect class="cls-1" x="194.21" y="476.67" width="17.65" height="17.65"/>
  <rect class="cls-1" x="211.87" y="476.67" width="17.65" height="17.65"/>
  <rect class="cls-1" x="247.17" y="476.67" width="17.65" height="17.65"/>
  <rect class="cls-1" x="300.13" y="476.67" width="17.65" height="17.65"/>
  <rect class="cls-1" x="317.79" y="476.67" width="17.65" height="17.65"/>
  <rect class="cls-1" x="335.44" y="476.67" width="17.65" height="17.65"/>
  <rect class="cls-1" x="406.06" y="476.67" width="17.65" height="17.65"/>
  <rect class="cls-1" x="441.37" y="476.67" width="17.65" height="17.65"/>
  <rect class="cls-1" x="494.33" y="476.67" width="17.65" height="17.65"/>
  <rect class="cls-1" x="176.56" y="494.33" width="17.65" height="17.65"/>
  <rect class="cls-1" x="247.17" y="494.33" width="17.65" height="17.65"/>
  <rect class="cls-1" x="300.13" y="494.33" width="17.65" height="17.65"/>
  <rect class="cls-1" x="317.79" y="494.33" width="17.65" height="17.65"/>
  <rect class="cls-1" x="353.1" y="494.33" width="17.65" height="17.65"/>
  <rect class="cls-1" x="370.75" y="494.33" width="17.65" height="17.65"/>
  <rect class="cls-1" x="406.06" y="494.33" width="17.65" height="17.65"/>
  <rect class="cls-1" x="423.71" y="494.33" width="17.65" height="17.65"/>
  <rect class="cls-1" x="441.37" y="494.33" width="17.65" height="17.65"/>
  <path class="cls-1" d="M3.76,0C1.69,0,0,1.69,0,3.76V119.85c0,2.07,1.68,3.76,3.76,3.76H119.85c2.07,0,3.76-1.68,3.76-3.76V3.76C123.61,1.69,121.94,0,119.85,0,119.85,0,3.76,0,3.76,0ZM105.94,35.33V103.79c0,1.2-.97,2.15-2.15,2.15H19.83c-1.2,0-2.15-.97-2.15-2.15V19.83c0-1.2,.97-2.15,2.15-2.15H103.79c1.2,0,2.15,.97,2.15,2.15v15.5Z"/>
  <path class="cls-1" d="M88.29,70.63v-31.57c0-2.07-1.68-3.76-3.76-3.76H39.07c-2.07,0-3.76,1.68-3.76,3.76v45.48c0,2.07,1.68,3.76,3.76,3.76h45.46c2.07,0,3.76-1.68,3.76-3.76v-13.91Z"/>
  <path class="cls-1" d="M392.15,0C390.08,0,388.39,1.69,388.39,3.76V119.85c0,2.07,1.68,3.76,3.76,3.76h116.09c2.07,0,3.76-1.68,3.76-3.76V3.76C512,1.69,510.32,0,508.24,0,508.24,0,392.15,0,392.15,0Zm102.18,35.33V103.79c0,1.2-.97,2.15-2.15,2.15h-83.96c-1.2,0-2.15-.97-2.15-2.15V19.83c0-1.2,.97-2.15,2.15-2.15h83.96c1.2,0,2.15,.97,2.15,2.15v15.5Z"/>
  <path class="cls-1" d="M476.67,70.63v-31.57c0-2.07-1.68-3.76-3.76-3.76h-45.46c-2.07,0-3.76,1.68-3.76,3.76v45.48c0,2.07,1.68,3.76,3.76,3.76h45.46c2.07,0,3.76-1.68,3.76-3.76v-13.91Z"/>
  <path class="cls-1" d="M3.76,388.39c-2.07,0-3.76,1.69-3.76,3.76v116.09c0,2.07,1.68,3.76,3.76,3.76H119.85c2.07,0,3.76-1.68,3.76-3.76v-116.09c0-2.07-1.68-3.76-3.76-3.76,0,0-116.09,0-116.09,0Zm102.18,35.33v68.46c0,1.2-.97,2.15-2.15,2.15H19.83c-1.2,0-2.15-.97-2.15-2.15v-83.96c0-1.2,.97-2.15,2.15-2.15H103.79c1.2,0,2.15,.97,2.15,2.15v15.5Z"/>
  <path class="cls-1" d="M88.29,459.02v-31.57c0-2.07-1.68-3.76-3.76-3.76H39.07c-2.07,0-3.76,1.68-3.76,3.76v45.48c0,2.07,1.68,3.76,3.76,3.76h45.46c2.07,0,3.76-1.68,3.76-3.76v-13.91Z"/>
</svg>