<?xml version="1.0" encoding="UTF-8"?>
<svg id="Capa_1" data-name="Capa 1" xmlns="http://www.w3.org/2000/svg" viewBox="0 0 512 512">
  <defs>
    <style>
      .cls-1 {
        fill: #564b42;
      }
    </style>
  </defs>
  <g>
    <rect class="cls-1" x="141.82" y=".55" width="17.6" height="17.6"/>
    <rect class="cls-1" x="177.02" y=".55" width="17.6" height="17.6"/>
    <rect class="cls-1" x="194.62" y=".55" width="17.6" height="17.6"/>
    <rect class="cls-1" x="212.23" y=".55" width="17.6" height="17.6"/>
    <rect class="cls-1" x="229.83" y=".55" width="17.6" height="17.6"/>
    <rect class="cls-1" x="247.43" y=".55" width="17.6" height="17.6"/>
    <rect class="cls-1" x="265.04" y=".55" width="17.6" height="17.6"/>
    <rect class="cls-1" x="353.05" y=".55" width="17.6" height="17.6"/>
    <rect class="cls-1" x="141.82" y="18.15" width="17.6" height="17.6"/>
    <rect class="cls-1" x="194.62" y="18.15" width="17.6" height="17.6"/>
    <rect class="cls-1" x="247.43" y="18.15" width="17.6" height="17.6"/>
    <rect class="cls-1" x="265.04" y="18.15" width="17.6" height="17.6"/>
    <rect class="cls-1" x="300.24" y="18.15" width="17.6" height="17.6"/>
    <rect class="cls-1" x="335.45" y="18.15" width="17.6" height="17.6"/>
    <rect class="cls-1" x="141.82" y="35.76" width="17.6" height="17.6"/>
    <rect class="cls-1" x="159.42" y="35.76" width="17.6" height="17.6"/>
    <rect class="cls-1" x="212.23" y="35.76" width="17.6" height="17.6"/>
    <rect class="cls-1" x="229.83" y="35.76" width="17.6" height="17.6"/>
    <rect class="cls-1" x="265.04" y="35.76" width="17.6" height="17.6"/>
    <rect class="cls-1" x="353.05" y="35.76" width="17.6" height="17.6"/>
    <rect class="cls-1" x="177.02" y="53.36" width="17.6" height="17.6"/>
    <rect class="cls-1" x="229.83" y="53.36" width="17.6" height="17.6"/>
    <rect class="cls-1" x="247.43" y="53.36" width="17.6" height="17.6"/>
    <rect class="cls-1" x="300.24" y="53.36" width="17.6" height="17.6"/>
    <rect class="cls-1" x="317.85" y="53.36" width="17.6" height="17.6"/>
    <rect class="cls-1" x="353.05" y="53.36" width="17.6" height="17.6"/>
    <rect class="cls-1" x="177.02" y="70.96" width="17.6" height="17.6"/>
    <rect class="cls-1" x="212.23" y="70.96" width="17.6" height="17.6"/>
    <rect class="cls-1" x="317.85" y="70.96" width="17.6" height="17.6"/>
    <rect class="cls-1" x="141.82" y="88.57" width="17.6" height="17.6"/>
    <rect class="cls-1" x="177.02" y="88.57" width="17.6" height="17.6"/>
    <rect class="cls-1" x="212.23" y="88.57" width="17.6" height="17.6"/>
    <rect class="cls-1" x="229.83" y="88.57" width="17.6" height="17.6"/>
    <rect class="cls-1" x="265.04" y="88.57" width="17.6" height="17.6"/>
    <rect class="cls-1" x="317.85" y="88.57" width="17.6" height="17.6"/>
    <rect class="cls-1" x="353.05" y="88.57" width="17.6" height="17.6"/>
    <rect class="cls-1" x="141.82" y="106.17" width="17.6" height="17.6"/>
    <rect class="cls-1" x="177.02" y="106.17" width="17.6" height="17.6"/>
    <rect class="cls-1" x="212.23" y="106.17" width="17.6" height="17.6"/>
    <rect class="cls-1" x="247.43" y="106.17" width="17.6" height="17.6"/>
    <rect class="cls-1" x="282.64" y="106.17" width="17.6" height="17.6"/>
    <rect class="cls-1" x="317.85" y="106.17" width="17.6" height="17.6"/>
    <rect class="cls-1" x="353.05" y="106.17" width="17.6" height="17.6"/>
    <rect class="cls-1" x="141.82" y="123.77" width="17.6" height="17.6"/>
    <rect class="cls-1" x="177.02" y="123.77" width="17.6" height="17.6"/>
    <rect class="cls-1" x="265.04" y="123.77" width="17.6" height="17.6"/>
    <rect class="cls-1" x="282.64" y="123.77" width="17.6" height="17.6"/>
    <rect class="cls-1" x="317.85" y="123.77" width="17.6" height="17.6"/>
    <rect class="cls-1" x="335.45" y="123.77" width="17.6" height="17.6"/>
    <rect class="cls-1" x="353.05" y="123.77" width="17.6" height="17.6"/>
    <rect class="cls-1" x="36.2" y="141.38" width="17.6" height="17.6"/>
    <rect class="cls-1" x="53.8" y="141.38" width="17.6" height="17.6"/>
    <rect class="cls-1" x="71.4" y="141.38" width="17.6" height="17.6"/>
    <rect class="cls-1" x="106.61" y="141.38" width="17.6" height="17.6"/>
    <rect class="cls-1" x="141.82" y="141.38" width="17.6" height="17.6"/>
    <rect class="cls-1" x="159.42" y="141.38" width="17.6" height="17.6"/>
    <rect class="cls-1" x="177.02" y="141.38" width="17.6" height="17.6"/>
    <rect class="cls-1" x="194.62" y="141.38" width="17.6" height="17.6"/>
    <rect class="cls-1" x="317.85" y="141.38" width="17.6" height="17.6"/>
    <rect class="cls-1" x="370.66" y="141.38" width="17.6" height="17.6"/>
    <rect class="cls-1" x="388.26" y="141.38" width="17.6" height="17.6"/>
    <rect class="cls-1" x="405.86" y="141.38" width="17.6" height="17.6"/>
    <rect class="cls-1" x="458.67" y="141.38" width="17.6" height="17.6"/>
    <rect class="cls-1" x="476.28" y="141.38" width="17.6" height="17.6"/>
    <rect class="cls-1" x="493.88" y="141.38" width="17.6" height="17.6"/>
    <rect class="cls-1" x=".99" y="158.98" width="17.6" height="17.6"/>
    <rect class="cls-1" x="18.59" y="158.98" width="17.6" height="17.6"/>
    <rect class="cls-1" x="53.8" y="158.98" width="17.6" height="17.6"/>
    <rect class="cls-1" x="71.4" y="158.98" width="17.6" height="17.6"/>
    <rect class="cls-1" x="124.21" y="158.98" width="17.6" height="17.6"/>
    <rect class="cls-1" x="141.82" y="158.98" width="17.6" height="17.6"/>
    <rect class="cls-1" x="353.05" y="158.98" width="17.6" height="17.6"/>
    <rect class="cls-1" x="370.66" y="158.98" width="17.6" height="17.6"/>
    <rect class="cls-1" x="388.26" y="158.98" width="17.6" height="17.6"/>
    <rect class="cls-1" x="423.47" y="158.98" width="17.6" height="17.6"/>
    <rect class="cls-1" x="476.28" y="158.98" width="17.6" height="17.6"/>
    <rect class="cls-1" x="493.88" y="158.98" width="17.6" height="17.6"/>
    <rect class="cls-1" x="18.59" y="176.58" width="17.6" height="17.6"/>
    <rect class="cls-1" x="36.2" y="176.58" width="17.6" height="17.6"/>
    <rect class="cls-1" x="53.8" y="176.58" width="17.6" height="17.6"/>
    <rect class="cls-1" x="71.4" y="176.58" width="17.6" height="17.6"/>
    <rect class="cls-1" x="89.01" y="176.58" width="17.6" height="17.6"/>
    <rect class="cls-1" x="106.61" y="176.58" width="17.6" height="17.6"/>
    <rect class="cls-1" x="141.82" y="176.58" width="17.6" height="17.6"/>
    <rect class="cls-1" x="458.67" y="176.58" width="17.6" height="17.6"/>
    <rect class="cls-1" x="53.8" y="194.18" width="17.6" height="17.6"/>
    <rect class="cls-1" x="71.4" y="194.18" width="17.6" height="17.6"/>
    <rect class="cls-1" x="89.01" y="194.18" width="17.6" height="17.6"/>
    <rect class="cls-1" x="124.21" y="194.18" width="17.6" height="17.6"/>
    <rect class="cls-1" x="353.05" y="194.18" width="17.6" height="17.6"/>
    <rect class="cls-1" x="388.26" y="194.18" width="17.6" height="17.6"/>
    <rect class="cls-1" x="405.86" y="194.18" width="17.6" height="17.6"/>
    <rect class="cls-1" x="423.47" y="194.18" width="17.6" height="17.6"/>
    <rect class="cls-1" x="441.07" y="194.18" width="17.6" height="17.6"/>
    <rect class="cls-1" x="458.67" y="194.18" width="17.6" height="17.6"/>
    <rect class="cls-1" x=".99" y="211.79" width="17.6" height="17.6"/>
    <rect class="cls-1" x="18.59" y="211.79" width="17.6" height="17.6"/>
    <rect class="cls-1" x="89.01" y="211.79" width="17.6" height="17.6"/>
    <rect class="cls-1" x="106.61" y="211.79" width="17.6" height="17.6"/>
    <rect class="cls-1" x="124.21" y="211.79" width="17.6" height="17.6"/>
    <rect class="cls-1" x="353.05" y="211.79" width="17.6" height="17.6"/>
    <rect class="cls-1" x="370.66" y="211.79" width="17.6" height="17.6"/>
    <rect class="cls-1" x="423.47" y="211.79" width="17.6" height="17.6"/>
    <rect class="cls-1" x="458.67" y="211.79" width="17.6" height="17.6"/>
    <rect class="cls-1" x="476.28" y="211.79" width="17.6" height="17.6"/>
    <rect class="cls-1" x=".99" y="229.39" width="17.6" height="17.6"/>
    <rect class="cls-1" x="124.21" y="229.39" width="17.6" height="17.6"/>
    <rect class="cls-1" x="141.82" y="229.39" width="17.6" height="17.6"/>
    <rect class="cls-1" x="353.05" y="229.39" width="17.6" height="17.6"/>
    <rect class="cls-1" x="388.26" y="229.39" width="17.6" height="17.6"/>
    <rect class="cls-1" x="423.47" y="229.39" width="17.6" height="17.6"/>
    <rect class="cls-1" x="441.07" y="229.39" width="17.6" height="17.6"/>
    <rect class="cls-1" x="493.88" y="229.39" width="17.6" height="17.6"/>
    <rect class="cls-1" x=".99" y="246.99" width="17.6" height="17.6"/>
    <rect class="cls-1" x="18.59" y="246.99" width="17.6" height="17.6"/>
    <rect class="cls-1" x="53.8" y="246.99" width="17.6" height="17.6"/>
    <rect class="cls-1" x="71.4" y="246.99" width="17.6" height="17.6"/>
    <rect class="cls-1" x="106.61" y="246.99" width="17.6" height="17.6"/>
    <rect class="cls-1" x="124.21" y="246.99" width="17.6" height="17.6"/>
    <rect class="cls-1" x="141.82" y="246.99" width="17.6" height="17.6"/>
    <rect class="cls-1" x="405.86" y="246.99" width="17.6" height="17.6"/>
    <rect class="cls-1" x="458.67" y="246.99" width="17.6" height="17.6"/>
    <rect class="cls-1" x="493.88" y="246.99" width="17.6" height="17.6"/>
    <rect class="cls-1" x="18.59" y="264.6" width="17.6" height="17.6"/>
    <rect class="cls-1" x="36.2" y="264.6" width="17.6" height="17.6"/>
    <rect class="cls-1" x="71.4" y="264.6" width="17.6" height="17.6"/>
    <rect class="cls-1" x="89.01" y="264.6" width="17.6" height="17.6"/>
    <rect class="cls-1" x="124.21" y="264.6" width="17.6" height="17.6"/>
    <rect class="cls-1" x="370.66" y="264.6" width="17.6" height="17.6"/>
    <rect class="cls-1" x="388.26" y="264.6" width="17.6" height="17.6"/>
    <rect class="cls-1" x="405.86" y="264.6" width="17.6" height="17.6"/>
    <rect class="cls-1" x="423.47" y="264.6" width="17.6" height="17.6"/>
    <rect class="cls-1" x="458.67" y="264.6" width="17.6" height="17.6"/>
    <rect class="cls-1" x="476.28" y="264.6" width="17.6" height="17.6"/>
    <rect class="cls-1" x="493.88" y="264.6" width="17.6" height="17.6"/>
    <rect class="cls-1" x="71.4" y="282.2" width="17.6" height="17.6"/>
    <rect class="cls-1" x="89.01" y="282.2" width="17.6" height="17.6"/>
    <rect class="cls-1" x="106.61" y="282.2" width="17.6" height="17.6"/>
    <rect class="cls-1" x="124.21" y="282.2" width="17.6" height="17.6"/>
    <rect class="cls-1" x="141.82" y="282.2" width="17.6" height="17.6"/>
    <rect class="cls-1" x="405.86" y="282.2" width="17.6" height="17.6"/>
    <rect class="cls-1" x=".99" y="299.8" width="17.6" height="17.6"/>
    <rect class="cls-1" x="18.59" y="299.8" width="17.6" height="17.6"/>
    <rect class="cls-1" x="89.01" y="299.8" width="17.6" height="17.6"/>
    <rect class="cls-1" x="353.05" y="299.8" width="17.6" height="17.6"/>
    <rect class="cls-1" x="370.66" y="299.8" width="17.6" height="17.6"/>
    <rect class="cls-1" x="405.86" y="299.8" width="17.6" height="17.6"/>
    <rect class="cls-1" x="441.07" y="299.8" width="17.6" height="17.6"/>
    <rect class="cls-1" x="476.28" y="299.8" width="17.6" height="17.6"/>
    <rect class="cls-1" x=".99" y="317.41" width="17.6" height="17.6"/>
    <rect class="cls-1" x="36.2" y="317.41" width="17.6" height="17.6"/>
    <rect class="cls-1" x="71.4" y="317.41" width="17.6" height="17.6"/>
    <rect class="cls-1" x="106.61" y="317.41" width="17.6" height="17.6"/>
    <rect class="cls-1" x="141.82" y="317.41" width="17.6" height="17.6"/>
    <rect class="cls-1" x="353.05" y="317.41" width="17.6" height="17.6"/>
    <rect class="cls-1" x="370.66" y="317.41" width="17.6" height="17.6"/>
    <rect class="cls-1" x="458.67" y="317.41" width="17.6" height="17.6"/>
    <rect class="cls-1" x=".99" y="335.01" width="17.6" height="17.6"/>
    <rect class="cls-1" x="89.01" y="335.01" width="17.6" height="17.6"/>
    <rect class="cls-1" x="141.82" y="335.01" width="17.6" height="17.6"/>
    <rect class="cls-1" x="353.05" y="335.01" width="17.6" height="17.6"/>
    <rect class="cls-1" x="388.26" y="335.01" width="17.6" height="17.6"/>
    <rect class="cls-1" x="423.47" y="335.01" width="17.6" height="17.6"/>
    <rect class="cls-1" x="441.07" y="335.01" width="17.6" height="17.6"/>
    <rect class="cls-1" x="476.28" y="335.01" width="17.6" height="17.6"/>
    <rect class="cls-1" x="493.88" y="335.01" width="17.6" height="17.6"/>
    <rect class="cls-1" x=".99" y="352.61" width="17.6" height="17.6"/>
    <rect class="cls-1" x="53.8" y="352.61" width="17.6" height="17.6"/>
    <rect class="cls-1" x="106.61" y="352.61" width="17.6" height="17.6"/>
    <rect class="cls-1" x="124.21" y="352.61" width="17.6" height="17.6"/>
    <rect class="cls-1" x="212.23" y="352.61" width="17.6" height="17.6"/>
    <rect class="cls-1" x="229.83" y="352.61" width="17.6" height="17.6"/>
    <rect class="cls-1" x="265.04" y="352.61" width="17.6" height="17.6"/>
    <rect class="cls-1" x="317.85" y="352.61" width="17.6" height="17.6"/>
    <rect class="cls-1" x="353.05" y="352.61" width="17.6" height="17.6"/>
    <rect class="cls-1" x="370.66" y="352.61" width="17.6" height="17.6"/>
    <rect class="cls-1" x="388.26" y="352.61" width="17.6" height="17.6"/>
    <rect class="cls-1" x="405.86" y="352.61" width="17.6" height="17.6"/>
    <rect class="cls-1" x="423.47" y="352.61" width="17.6" height="17.6"/>
    <rect class="cls-1" x="476.28" y="352.61" width="17.6" height="17.6"/>
    <rect class="cls-1" x="493.88" y="352.61" width="17.6" height="17.6"/>
    <rect class="cls-1" x="141.82" y="370.22" width="17.6" height="17.6"/>
    <rect class="cls-1" x="159.42" y="370.22" width="17.6" height="17.6"/>
    <rect class="cls-1" x="212.23" y="370.22" width="17.6" height="17.6"/>
    <rect class="cls-1" x="247.43" y="370.22" width="17.6" height="17.6"/>
    <rect class="cls-1" x="265.04" y="370.22" width="17.6" height="17.6"/>
    <rect class="cls-1" x="282.64" y="370.22" width="17.6" height="17.6"/>
    <rect class="cls-1" x="300.24" y="370.22" width="17.6" height="17.6"/>
    <rect class="cls-1" x="317.85" y="370.22" width="17.6" height="17.6"/>
    <rect class="cls-1" x="335.45" y="370.22" width="17.6" height="17.6"/>
    <rect class="cls-1" x="353.05" y="370.22" width="17.6" height="17.6"/>
    <rect class="cls-1" x="423.47" y="370.22" width="17.6" height="17.6"/>
    <rect class="cls-1" x="441.07" y="370.22" width="17.6" height="17.6"/>
    <rect class="cls-1" x="493.88" y="370.22" width="17.6" height="17.6"/>
    <rect class="cls-1" x="247.43" y="387.82" width="17.6" height="17.6"/>
    <rect class="cls-1" x="335.45" y="387.82" width="17.6" height="17.6"/>
    <rect class="cls-1" x="353.05" y="387.82" width="17.6" height="17.6"/>
    <rect class="cls-1" x="388.26" y="387.82" width="17.6" height="17.6"/>
    <rect class="cls-1" x="423.47" y="387.82" width="17.6" height="17.6"/>
    <rect class="cls-1" x="441.07" y="387.82" width="17.6" height="17.6"/>
    <rect class="cls-1" x="458.67" y="387.82" width="17.6" height="17.6"/>
    <rect class="cls-1" x="476.28" y="387.82" width="17.6" height="17.6"/>
    <rect class="cls-1" x="159.42" y="405.42" width="17.6" height="17.6"/>
    <rect class="cls-1" x="177.02" y="405.42" width="17.6" height="17.6"/>
    <rect class="cls-1" x="229.83" y="405.42" width="17.6" height="17.6"/>
    <rect class="cls-1" x="335.45" y="405.42" width="17.6" height="17.6"/>
    <rect class="cls-1" x="353.05" y="405.42" width="17.6" height="17.6"/>
    <rect class="cls-1" x="423.47" y="405.42" width="17.6" height="17.6"/>
    <rect class="cls-1" x="441.07" y="405.42" width="17.6" height="17.6"/>
    <rect class="cls-1" x="476.28" y="405.42" width="17.6" height="17.6"/>
    <rect class="cls-1" x="493.88" y="405.42" width="17.6" height="17.6"/>
    <rect class="cls-1" x="141.82" y="423.03" width="17.6" height="17.6"/>
    <rect class="cls-1" x="177.02" y="423.03" width="17.6" height="17.6"/>
    <rect class="cls-1" x="194.62" y="423.03" width="17.6" height="17.6"/>
    <rect class="cls-1" x="212.23" y="423.03" width="17.6" height="17.6"/>
    <rect class="cls-1" x="229.83" y="423.03" width="17.6" height="17.6"/>
    <rect class="cls-1" x="265.04" y="423.03" width="17.6" height="17.6"/>
    <rect class="cls-1" x="335.45" y="423.03" width="17.6" height="17.6"/>
    <rect class="cls-1" x="353.05" y="423.03" width="17.6" height="17.6"/>
    <rect class="cls-1" x="370.66" y="423.03" width="17.6" height="17.6"/>
    <rect class="cls-1" x="388.26" y="423.03" width="17.6" height="17.6"/>
    <rect class="cls-1" x="405.86" y="423.03" width="17.6" height="17.6"/>
    <rect class="cls-1" x="423.47" y="423.03" width="17.6" height="17.6"/>
    <rect class="cls-1" x="141.82" y="440.63" width="17.6" height="17.6"/>
    <rect class="cls-1" x="159.42" y="440.63" width="17.6" height="17.6"/>
    <rect class="cls-1" x="177.02" y="440.63" width="17.6" height="17.6"/>
    <rect class="cls-1" x="194.62" y="440.63" width="17.6" height="17.6"/>
    <rect class="cls-1" x="212.23" y="440.63" width="17.6" height="17.6"/>
    <rect class="cls-1" x="229.83" y="440.63" width="17.6" height="17.6"/>
    <rect class="cls-1" x="265.04" y="440.63" width="17.6" height="17.6"/>
    <rect class="cls-1" x="282.64" y="440.63" width="17.6" height="17.6"/>
    <rect class="cls-1" x="300.24" y="440.63" width="17.6" height="17.6"/>
    <rect class="cls-1" x="353.05" y="440.63" width="17.6" height="17.6"/>
    <rect class="cls-1" x="370.66" y="440.63" width="17.6" height="17.6"/>
    <rect class="cls-1" x="388.26" y="440.63" width="17.6" height="17.6"/>
    <rect class="cls-1" x="423.47" y="440.63" width="17.6" height="17.6"/>
    <rect class="cls-1" x="441.07" y="440.63" width="17.6" height="17.6"/>
    <rect class="cls-1" x="141.82" y="458.23" width="17.6" height="17.6"/>
    <rect class="cls-1" x="159.42" y="458.23" width="17.6" height="17.6"/>
    <rect class="cls-1" x="229.83" y="458.23" width="17.6" height="17.6"/>
    <rect class="cls-1" x="247.43" y="458.23" width="17.6" height="17.6"/>
    <rect class="cls-1" x="282.64" y="458.23" width="17.6" height="17.6"/>
    <rect class="cls-1" x="300.24" y="458.23" width="17.6" height="17.6"/>
    <rect class="cls-1" x="317.85" y="458.23" width="17.6" height="17.6"/>
    <rect class="cls-1" x="370.66" y="458.23" width="17.6" height="17.6"/>
    <rect class="cls-1" x="388.26" y="458.23" width="17.6" height="17.6"/>
    <rect class="cls-1" x="405.86" y="458.23" width="17.6" height="17.6"/>
    <rect class="cls-1" x="423.47" y="458.23" width="17.6" height="17.6"/>
    <rect class="cls-1" x="458.67" y="458.23" width="17.6" height="17.6"/>
    <rect class="cls-1" x="476.28" y="458.23" width="17.6" height="17.6"/>
    <rect class="cls-1" x="159.42" y="475.84" width="17.6" height="17.6"/>
    <rect class="cls-1" x="194.62" y="475.84" width="17.6" height="17.6"/>
    <rect class="cls-1" x="212.23" y="475.84" width="17.6" height="17.6"/>
    <rect class="cls-1" x="247.43" y="475.84" width="17.6" height="17.6"/>
    <rect class="cls-1" x="265.04" y="475.84" width="17.6" height="17.6"/>
    <rect class="cls-1" x="300.24" y="475.84" width="17.6" height="17.6"/>
    <rect class="cls-1" x="317.85" y="475.84" width="17.6" height="17.6"/>
    <rect class="cls-1" x="335.45" y="475.84" width="17.6" height="17.6"/>
    <rect class="cls-1" x="405.86" y="475.84" width="17.6" height="17.6"/>
    <rect class="cls-1" x="441.07" y="475.84" width="17.6" height="17.6"/>
    <rect class="cls-1" x="493.88" y="475.84" width="17.6" height="17.6"/>
    <rect class="cls-1" x="177.02" y="493.44" width="17.6" height="17.6"/>
    <rect class="cls-1" x="247.43" y="493.44" width="17.6" height="17.6"/>
    <rect class="cls-1" x="265.04" y="493.44" width="17.6" height="17.6"/>
    <rect class="cls-1" x="300.24" y="493.44" width="17.6" height="17.6"/>
    <rect class="cls-1" x="317.85" y="493.44" width="17.6" height="17.6"/>
    <rect class="cls-1" x="353.05" y="493.44" width="17.6" height="17.6"/>
    <rect class="cls-1" x="370.66" y="493.44" width="17.6" height="17.6"/>
    <rect class="cls-1" x="405.86" y="493.44" width="17.6" height="17.6"/>
    <rect class="cls-1" x="423.47" y="493.44" width="17.6" height="17.6"/>
    <rect class="cls-1" x="441.07" y="493.44" width="17.6" height="17.6"/>
    <path class="cls-1" d="M4.72,.53C2.66,.53,.97,2.22,.97,4.28V120.04c0,2.06,1.67,3.75,3.75,3.75H120.48c2.06,0,3.75-1.67,3.75-3.75V4.28c0-2.06-1.67-3.75-3.75-3.75,0,0-115.76,0-115.76,0ZM106.61,35.76V104.02c0,1.2-.97,2.15-2.15,2.15H20.74c-1.2,0-2.15-.97-2.15-2.15V20.3c0-1.2,.97-2.15,2.15-2.15H104.46c1.2,0,2.15,.97,2.15,2.15v15.46Z"/>
    <path class="cls-1" d="M89.01,70.96v-31.47c0-2.06-1.67-3.75-3.75-3.75H39.93c-2.06,0-3.75,1.67-3.75,3.75v45.35c0,2.06,1.67,3.75,3.75,3.75h45.33c2.06,0,3.75-1.67,3.75-3.75v-13.87Z"/>
    <path class="cls-1" d="M391.99,.53c-2.06,0-3.75,1.69-3.75,3.75V120.04c0,2.06,1.67,3.75,3.75,3.75h115.76c2.06,0,3.75-1.67,3.75-3.75V4.28c0-2.06-1.67-3.75-3.75-3.75,0,0-115.76,0-115.76,0Zm101.89,35.22V104.02c0,1.2-.97,2.15-2.15,2.15h-83.72c-1.2,0-2.15-.97-2.15-2.15V20.3c0-1.2,.97-2.15,2.15-2.15h83.72c1.2,0,2.15,.97,2.15,2.15v15.46Z"/>
    <path class="cls-1" d="M476.28,70.96v-31.47c0-2.06-1.67-3.75-3.75-3.75h-45.33c-2.06,0-3.75,1.67-3.75,3.75v45.35c0,2.06,1.67,3.75,3.75,3.75h45.33c2.06,0,3.75-1.67,3.75-3.75v-13.87Z"/>
    <path class="cls-1" d="M4.72,387.8c-2.06,0-3.75,1.69-3.75,3.75v115.76c0,2.06,1.67,3.75,3.75,3.75H120.48c2.06,0,3.75-1.67,3.75-3.75v-115.76c0-2.06-1.67-3.75-3.75-3.75,0,0-115.76,0-115.76,0Zm101.89,35.22v68.27c0,1.2-.97,2.15-2.15,2.15H20.74c-1.2,0-2.15-.97-2.15-2.15v-83.72c0-1.2,.97-2.15,2.15-2.15H104.46c1.2,0,2.15,.97,2.15,2.15v15.46Z"/>
    <path class="cls-1" d="M89.01,458.23v-31.47c0-2.06-1.67-3.75-3.75-3.75H39.93c-2.06,0-3.75,1.67-3.75,3.75v45.35c0,2.06,1.67,3.75,3.75,3.75h45.33c2.06,0,3.75-1.67,3.75-3.75v-13.87Z"/>
  </g>
  <path class="cls-1" d="M337.56,259.55c.01,13.56-3.8,29.32-13.33,43.4-11.41,16.87-27.36,27.32-47.05,31.89-19.93,4.62-39.42,2.75-57.97-6.01-18.94-8.95-31.68-23.68-38.92-43.23-4.71-12.72-6.21-25.94-5.79-39.42,.41-13.26,2.39-26.26,7.09-38.74,.94-2.51,2.07-4.93,3.29-7.33,.48-.94,.85-1,1.74-.52,4.28,2.32,8.82,3.1,13.63,2.01,3.78-.86,6.54-3.21,9.16-5.91,6.38-6.56,13.04-12.8,21.58-16.55,6.39-2.81,13.18-3.74,20.1-4.15,10-.59,19.95-.47,29.69,2.1,28.63,7.56,46.63,25.71,53.92,54.41,2.06,8.13,2.81,16.41,2.86,28.04Zm-54.97,58.04c2.89-1.16,5.44-2.41,7.88-3.86,20.86-12.39,32.58-30.58,33.97-54.86,.94-16.4-4.1-31.25-13.97-44.33-10.62-14.08-24.76-21.99-42.5-23.07-6.1-.37-12.2,.09-18.31,.01-10.33-.13-19.25,3.48-27.03,10.12-2.84,2.42-5.41,5.1-7.81,8.32h1.24c7.68,0,15.36,0,23.04,0,3.82,0,7.61,.28,11.35,1.08,4.66,1,9.04,2.64,12.4,6.21,4.4,4.67,5.12,10.42,4.4,16.44-.67,5.67-3.32,10.25-8.2,13.42-.19,.13-.55,.23-.31,.71h1.78c17.43,0,34.86,0,52.3,0,.39,0,.79,.03,1.18,0,.83-.07,.92,.3,.73,1.01-.91,3.28-1.78,6.57-2.67,9.86-.17,.62-.37,1.1-1.21,1.04-.74-.05-1.24-.08-1.41-1-.31-1.67-1.48-2.68-2.96-3.4-2.17-1.05-4.51-1.31-6.86-1.4-3.86-.15-7.73-.23-11.44,1.16-1.15,.43-1.71,1.08-1.7,2.47,.07,9.29,.04,18.59,.03,27.89,0,.89-.08,1.79-.23,2.67-.3,1.75-1.09,3.2-2.94,3.71-.72,.2-.76,.62-.76,1.22,.01,8.12,0,16.23,0,24.57Zm-52.92-65.36c0,12.83,0,25.42-.03,38.02,0,.56,.53,1.57-.47,1.66-.89,.08-1.96,.55-2.74-.57-1.54-2.19-3.67-3.74-5.96-5.07-2.88-1.68-5.93-2.89-9.3-3.12-.6-.04-1.17-.15-1.01-.95,.1-.5-.43-1.25,.65-1.4,3.1-.41,4.53-2.61,5.43-5.28,1.09-3.22,1.27-6.59,1.28-9.94,.06-13.66,.06-27.33,0-40.99-.01-3.36-.37-6.7-2.08-9.73-.97-1.72-2.29-2.86-4.42-2.69-1.06,.08-2.12,.08-3.19,.14-3.85,.21-7.15,1.67-9.94,4.31-3.43,3.24-5.48,7.31-6.89,11.72-3.29,10.32-3.66,20.88-2.38,31.54,2.19,18.19,9.24,34.12,22.55,46.94,15.42,14.86,33.8,19.79,54.73,15.7,2.41-.47,4.04-1.84,5.11-3.94,1.29-2.52,1.83-5.26,2.1-8.06,.5-5.25,.19-10.52,.26-15.78,.04-2.93-.02-3.19-2.85-2.88-4.55,.5-8.05-1.24-11.12-4.31-.63-.63-1.32-1.22-1.95-1.85-9.35-9.4-17.44-19.82-24.85-30.78-.72-1.07-1.48-2.07-2.96-2.7Zm-1.91-19.57v7.73c0,3.93,0,4.01,3.96,4.38,5.43,.51,10.85,.61,16.12-1.13,3.45-1.14,6.38-2.97,8.14-6.29,4.06-7.66,.52-16.72-7.68-19.57-1.16-.4-2.35-.73-3.56-.96-4.39-.84-8.66-1.03-12.38,2.18-.96,.83-2.21,1.38-3.46,1.65-1.02,.22-1.2,.69-1.18,1.6,.05,3.47,.02,6.94,.02,10.41Zm45.63,51.99c0-7.97-.03-15.39,.03-22.82,.01-1.48-.08-2.63-1.77-3.12-.6-.17-1.08-.77-1.6-1.19-2.35-1.86-4.84-3.47-7.95-3.56-2.23-.07-4.48-.03-6.71,.11-2.28,.14-4.57,.39-6.62,1.6-1.17,.69-1.46,1.32-.48,2.58,5.68,7.29,11.89,14.1,18.57,20.48,2.01,1.92,4.11,3.73,6.53,5.92Z"/>
</svg>