<?xml version="1.0" encoding="UTF-8"?>
<svg id="Capa_1" data-name="Capa 1" xmlns="http://www.w3.org/2000/svg" viewBox="0 0 512 512">
  <defs>
    <style>
      .cls-1 {
        fill: #564b42;
      }
    </style>
  </defs>
  <path class="cls-1" d="M337.56,259.55c.01,13.56-3.8,29.32-13.33,43.4-11.41,16.87-27.36,27.32-47.05,31.89-19.93,4.62-39.42,2.75-57.97-6.01-18.94-8.95-31.68-23.68-38.92-43.23-4.71-12.72-6.21-25.94-5.79-39.42,.41-13.26,2.39-26.26,7.09-38.74,.94-2.51,2.07-4.93,3.29-7.33,.48-.94,.85-1,1.74-.52,4.28,2.32,8.82,3.1,13.63,2.01,3.78-.86,6.54-3.21,9.16-5.91,6.38-6.56,13.04-12.8,21.58-16.55,6.39-2.81,13.18-3.74,20.1-4.15,10-.59,19.95-.47,29.69,2.1,28.63,7.56,46.63,25.71,53.92,54.41,2.06,8.13,2.81,16.41,2.86,28.04Zm-54.97,58.04c2.89-1.16,5.44-2.41,7.88-3.86,20.86-12.39,32.58-30.58,33.97-54.86,.94-16.4-4.1-31.25-13.97-44.33-10.62-14.08-24.76-21.99-42.5-23.07-6.1-.37-12.2,.09-18.31,.01-10.33-.13-19.25,3.48-27.03,10.12-2.84,2.42-5.41,5.1-7.81,8.32h1.24c7.68,0,15.36,0,23.04,0,3.82,0,7.61,.28,11.35,1.08,4.66,1,9.04,2.64,12.4,6.21,4.4,4.67,5.12,10.42,4.4,16.44-.67,5.67-3.32,10.25-8.2,13.42-.19,.13-.55,.23-.31,.71h1.78c17.43,0,34.86,0,52.3,0,.39,0,.79,.03,1.18,0,.83-.07,.92,.3,.73,1.01-.91,3.28-1.78,6.57-2.67,9.86-.17,.62-.37,1.1-1.21,1.04-.74-.05-1.24-.08-1.41-1-.31-1.67-1.48-2.68-2.96-3.4-2.17-1.05-4.51-1.31-6.86-1.4-3.86-.15-7.73-.23-11.44,1.16-1.15,.43-1.71,1.08-1.7,2.47,.07,9.29,.04,18.59,.03,27.89,0,.89-.08,1.79-.23,2.67-.3,1.75-1.09,3.2-2.94,3.71-.72,.2-.76,.62-.76,1.22,.01,8.12,0,16.23,0,24.57Zm-52.92-65.36c0,12.83,0,25.42-.03,38.02,0,.56,.53,1.57-.47,1.66-.89,.08-1.96,.55-2.74-.57-1.54-2.19-3.67-3.74-5.96-5.07-2.88-1.68-5.93-2.89-9.3-3.12-.6-.04-1.17-.15-1.01-.95,.1-.5-.43-1.25,.65-1.4,3.1-.41,4.53-2.61,5.43-5.28,1.09-3.22,1.27-6.59,1.28-9.94,.06-13.66,.06-27.33,0-40.99-.01-3.36-.37-6.7-2.08-9.73-.97-1.72-2.29-2.86-4.42-2.69-1.06,.08-2.12,.08-3.19,.14-3.85,.21-7.15,1.67-9.94,4.31-3.43,3.24-5.48,7.31-6.89,11.72-3.29,10.32-3.66,20.88-2.38,31.54,2.19,18.19,9.24,34.12,22.55,46.94,15.42,14.86,33.8,19.79,54.73,15.7,2.41-.47,4.04-1.84,5.11-3.94,1.29-2.52,1.83-5.26,2.1-8.06,.5-5.25,.19-10.52,.26-15.78,.04-2.93-.02-3.19-2.85-2.88-4.55,.5-8.05-1.24-11.12-4.31-.63-.63-1.32-1.22-1.95-1.85-9.35-9.4-17.44-19.82-24.85-30.78-.72-1.07-1.48-2.07-2.96-2.7Zm-1.91-19.57v7.73c0,3.93,0,4.01,3.96,4.38,5.43,.51,10.85,.61,16.12-1.13,3.45-1.14,6.38-2.97,8.14-6.29,4.06-7.66,.52-16.72-7.68-19.57-1.16-.4-2.35-.73-3.56-.96-4.39-.84-8.66-1.03-12.38,2.18-.96,.83-2.21,1.38-3.46,1.65-1.02,.22-1.2,.69-1.18,1.6,.05,3.47,.02,6.94,.02,10.41Zm45.63,51.99c0-7.97-.03-15.39,.03-22.82,.01-1.48-.08-2.63-1.77-3.12-.6-.17-1.08-.77-1.6-1.19-2.35-1.86-4.84-3.47-7.95-3.56-2.23-.07-4.48-.03-6.71,.11-2.28,.14-4.57,.39-6.62,1.6-1.17,.69-1.46,1.32-.48,2.58,5.68,7.29,11.89,14.1,18.57,20.48,2.01,1.92,4.11,3.73,6.53,5.92Z"/>
  <rect class="cls-1" x="141.52" y=".77" width="17.61" height="17.61"/>
  <rect class="cls-1" x="176.74" y=".77" width="17.61" height="17.61"/>
  <rect class="cls-1" x="229.57" y=".77" width="17.61" height="17.61"/>
  <rect class="cls-1" x="247.18" y=".77" width="17.61" height="17.61"/>
  <rect class="cls-1" x="335.23" y=".77" width="17.61" height="17.61"/>
  <rect class="cls-1" x="141.52" y="18.38" width="17.61" height="17.61"/>
  <rect class="cls-1" x="194.35" y="18.38" width="17.61" height="17.61"/>
  <rect class="cls-1" x="247.18" y="18.38" width="17.61" height="17.61"/>
  <rect class="cls-1" x="264.79" y="18.38" width="17.61" height="17.61"/>
  <rect class="cls-1" x="282.4" y="18.38" width="17.61" height="17.61"/>
  <rect class="cls-1" x="300.01" y="18.38" width="17.61" height="17.61"/>
  <rect class="cls-1" x="335.23" y="18.38" width="17.61" height="17.61"/>
  <rect class="cls-1" x="141.52" y="35.99" width="17.61" height="17.61"/>
  <rect class="cls-1" x="159.13" y="35.99" width="17.61" height="17.61"/>
  <rect class="cls-1" x="229.57" y="35.99" width="17.61" height="17.61"/>
  <rect class="cls-1" x="335.23" y="35.99" width="17.61" height="17.61"/>
  <rect class="cls-1" x="352.85" y="35.99" width="17.61" height="17.61"/>
  <rect class="cls-1" x="176.74" y="53.6" width="17.61" height="17.61"/>
  <rect class="cls-1" x="194.35" y="53.6" width="17.61" height="17.61"/>
  <rect class="cls-1" x="229.57" y="53.6" width="17.61" height="17.61"/>
  <rect class="cls-1" x="247.18" y="53.6" width="17.61" height="17.61"/>
  <rect class="cls-1" x="264.79" y="53.6" width="17.61" height="17.61"/>
  <rect class="cls-1" x="300.01" y="53.6" width="17.61" height="17.61"/>
  <rect class="cls-1" x="317.62" y="53.6" width="17.61" height="17.61"/>
  <rect class="cls-1" x="352.85" y="53.6" width="17.61" height="17.61"/>
  <rect class="cls-1" x="176.74" y="71.21" width="17.61" height="17.61"/>
  <rect class="cls-1" x="211.96" y="71.21" width="17.61" height="17.61"/>
  <rect class="cls-1" x="317.62" y="71.21" width="17.61" height="17.61"/>
  <rect class="cls-1" x="141.52" y="88.82" width="17.61" height="17.61"/>
  <rect class="cls-1" x="211.96" y="88.82" width="17.61" height="17.61"/>
  <rect class="cls-1" x="229.57" y="88.82" width="17.61" height="17.61"/>
  <rect class="cls-1" x="247.18" y="88.82" width="17.61" height="17.61"/>
  <rect class="cls-1" x="264.79" y="88.82" width="17.61" height="17.61"/>
  <rect class="cls-1" x="317.62" y="88.82" width="17.61" height="17.61"/>
  <rect class="cls-1" x="352.85" y="88.82" width="17.61" height="17.61"/>
  <rect class="cls-1" x="141.52" y="106.43" width="17.61" height="17.61"/>
  <rect class="cls-1" x="176.74" y="106.43" width="17.61" height="17.61"/>
  <rect class="cls-1" x="211.96" y="106.43" width="17.61" height="17.61"/>
  <rect class="cls-1" x="247.18" y="106.43" width="17.61" height="17.61"/>
  <rect class="cls-1" x="282.4" y="106.43" width="17.61" height="17.61"/>
  <rect class="cls-1" x="317.62" y="106.43" width="17.61" height="17.61"/>
  <rect class="cls-1" x="352.85" y="106.43" width="17.61" height="17.61"/>
  <rect class="cls-1" x="141.52" y="124.05" width="17.61" height="17.61"/>
  <rect class="cls-1" x="159.13" y="124.05" width="17.61" height="17.61"/>
  <rect class="cls-1" x="176.74" y="124.05" width="17.61" height="17.61"/>
  <rect class="cls-1" x="229.57" y="124.05" width="17.61" height="17.61"/>
  <rect class="cls-1" x="247.18" y="124.05" width="17.61" height="17.61"/>
  <rect class="cls-1" x="264.79" y="124.05" width="17.61" height="17.61"/>
  <rect class="cls-1" x="282.4" y="124.05" width="17.61" height="17.61"/>
  <rect class="cls-1" x="317.62" y="124.05" width="17.61" height="17.61"/>
  <rect class="cls-1" x="335.23" y="124.05" width="17.61" height="17.61"/>
  <rect class="cls-1" x="352.85" y="124.05" width="17.61" height="17.61"/>
  <rect class="cls-1" x="35.85" y="141.66" width="17.61" height="17.61"/>
  <rect class="cls-1" x="53.46" y="141.66" width="17.61" height="17.61"/>
  <rect class="cls-1" x="71.07" y="141.66" width="17.61" height="17.61"/>
  <rect class="cls-1" x="106.29" y="141.66" width="17.61" height="17.61"/>
  <rect class="cls-1" x="141.52" y="141.66" width="17.61" height="17.61"/>
  <rect class="cls-1" x="176.74" y="141.66" width="17.61" height="17.61"/>
  <rect class="cls-1" x="194.35" y="141.66" width="17.61" height="17.61"/>
  <rect class="cls-1" x="211.96" y="141.66" width="17.61" height="17.61"/>
  <rect class="cls-1" x="229.57" y="141.66" width="17.61" height="17.61"/>
  <rect class="cls-1" x="317.62" y="141.66" width="17.61" height="17.61"/>
  <rect class="cls-1" x="370.46" y="141.66" width="17.61" height="17.61"/>
  <rect class="cls-1" x="388.07" y="141.66" width="17.61" height="17.61"/>
  <rect class="cls-1" x="405.68" y="141.66" width="17.61" height="17.61"/>
  <rect class="cls-1" x="458.51" y="141.66" width="17.61" height="17.61"/>
  <rect class="cls-1" x="476.12" y="141.66" width="17.61" height="17.61"/>
  <rect class="cls-1" x="493.73" y="141.66" width="17.61" height="17.61"/>
  <rect class="cls-1" x=".63" y="159.27" width="17.61" height="17.61"/>
  <rect class="cls-1" x="35.85" y="159.27" width="17.61" height="17.61"/>
  <rect class="cls-1" x="53.46" y="159.27" width="17.61" height="17.61"/>
  <rect class="cls-1" x="71.07" y="159.27" width="17.61" height="17.61"/>
  <rect class="cls-1" x="88.68" y="159.27" width="17.61" height="17.61"/>
  <rect class="cls-1" x="123.91" y="159.27" width="17.61" height="17.61"/>
  <rect class="cls-1" x="141.52" y="159.27" width="17.61" height="17.61"/>
  <rect class="cls-1" x="352.85" y="159.27" width="17.61" height="17.61"/>
  <rect class="cls-1" x="370.46" y="159.27" width="17.61" height="17.61"/>
  <rect class="cls-1" x="388.07" y="159.27" width="17.61" height="17.61"/>
  <rect class="cls-1" x="423.29" y="159.27" width="17.61" height="17.61"/>
  <rect class="cls-1" x="476.12" y="159.27" width="17.61" height="17.61"/>
  <rect class="cls-1" x="493.73" y="159.27" width="17.61" height="17.61"/>
  <rect class="cls-1" x="18.24" y="176.88" width="17.61" height="17.61"/>
  <rect class="cls-1" x="35.85" y="176.88" width="17.61" height="17.61"/>
  <rect class="cls-1" x="71.07" y="176.88" width="17.61" height="17.61"/>
  <rect class="cls-1" x="88.68" y="176.88" width="17.61" height="17.61"/>
  <rect class="cls-1" x="106.29" y="176.88" width="17.61" height="17.61"/>
  <rect class="cls-1" x="123.91" y="176.88" width="17.61" height="17.61"/>
  <rect class="cls-1" x="141.52" y="176.88" width="17.61" height="17.61"/>
  <rect class="cls-1" x="458.51" y="176.88" width="17.61" height="17.61"/>
  <rect class="cls-1" x="35.85" y="194.49" width="17.61" height="17.61"/>
  <rect class="cls-1" x="53.46" y="194.49" width="17.61" height="17.61"/>
  <rect class="cls-1" x="71.07" y="194.49" width="17.61" height="17.61"/>
  <rect class="cls-1" x="88.68" y="194.49" width="17.61" height="17.61"/>
  <rect class="cls-1" x="141.52" y="194.49" width="17.61" height="17.61"/>
  <rect class="cls-1" x="352.85" y="194.49" width="17.61" height="17.61"/>
  <rect class="cls-1" x="388.07" y="194.49" width="17.61" height="17.61"/>
  <rect class="cls-1" x="405.68" y="194.49" width="17.61" height="17.61"/>
  <rect class="cls-1" x="423.29" y="194.49" width="17.61" height="17.61"/>
  <rect class="cls-1" x="440.9" y="194.49" width="17.61" height="17.61"/>
  <rect class="cls-1" x="458.51" y="194.49" width="17.61" height="17.61"/>
  <rect class="cls-1" x=".63" y="212.1" width="17.61" height="17.61"/>
  <rect class="cls-1" x="18.24" y="212.1" width="17.61" height="17.61"/>
  <rect class="cls-1" x="88.68" y="212.1" width="17.61" height="17.61"/>
  <rect class="cls-1" x="106.29" y="212.1" width="17.61" height="17.61"/>
  <rect class="cls-1" x="352.85" y="212.1" width="17.61" height="17.61"/>
  <rect class="cls-1" x="370.46" y="212.1" width="17.61" height="17.61"/>
  <rect class="cls-1" x="423.29" y="212.1" width="17.61" height="17.61"/>
  <rect class="cls-1" x="458.51" y="212.1" width="17.61" height="17.61"/>
  <rect class="cls-1" x="476.12" y="212.1" width="17.61" height="17.61"/>
  <rect class="cls-1" x="71.07" y="229.71" width="17.61" height="17.61"/>
  <rect class="cls-1" x="123.91" y="229.71" width="17.61" height="17.61"/>
  <rect class="cls-1" x="141.52" y="229.71" width="17.61" height="17.61"/>
  <rect class="cls-1" x="352.85" y="229.71" width="17.61" height="17.61"/>
  <rect class="cls-1" x="388.07" y="229.71" width="17.61" height="17.61"/>
  <rect class="cls-1" x="423.29" y="229.71" width="17.61" height="17.61"/>
  <rect class="cls-1" x="440.9" y="229.71" width="17.61" height="17.61"/>
  <rect class="cls-1" x="493.73" y="229.71" width="17.61" height="17.61"/>
  <rect class="cls-1" x="18.24" y="247.32" width="17.61" height="17.61"/>
  <rect class="cls-1" x="53.46" y="247.32" width="17.61" height="17.61"/>
  <rect class="cls-1" x="106.29" y="247.32" width="17.61" height="17.61"/>
  <rect class="cls-1" x="123.91" y="247.32" width="17.61" height="17.61"/>
  <rect class="cls-1" x="141.52" y="247.32" width="17.61" height="17.61"/>
  <rect class="cls-1" x="405.68" y="247.32" width="17.61" height="17.61"/>
  <rect class="cls-1" x="458.51" y="247.32" width="17.61" height="17.61"/>
  <rect class="cls-1" x="493.73" y="247.32" width="17.61" height="17.61"/>
  <rect class="cls-1" x=".63" y="264.93" width="17.61" height="17.61"/>
  <rect class="cls-1" x="35.85" y="264.93" width="17.61" height="17.61"/>
  <rect class="cls-1" x="71.07" y="264.93" width="17.61" height="17.61"/>
  <rect class="cls-1" x="88.68" y="264.93" width="17.61" height="17.61"/>
  <rect class="cls-1" x="123.91" y="264.93" width="17.61" height="17.61"/>
  <rect class="cls-1" x="370.46" y="264.93" width="17.61" height="17.61"/>
  <rect class="cls-1" x="388.07" y="264.93" width="17.61" height="17.61"/>
  <rect class="cls-1" x="405.68" y="264.93" width="17.61" height="17.61"/>
  <rect class="cls-1" x="423.29" y="264.93" width="17.61" height="17.61"/>
  <rect class="cls-1" x="458.51" y="264.93" width="17.61" height="17.61"/>
  <rect class="cls-1" x="476.12" y="264.93" width="17.61" height="17.61"/>
  <rect class="cls-1" x="493.73" y="264.93" width="17.61" height="17.61"/>
  <rect class="cls-1" x="18.24" y="282.54" width="17.61" height="17.61"/>
  <rect class="cls-1" x="88.68" y="282.54" width="17.61" height="17.61"/>
  <rect class="cls-1" x="106.29" y="282.54" width="17.61" height="17.61"/>
  <rect class="cls-1" x="123.91" y="282.54" width="17.61" height="17.61"/>
  <rect class="cls-1" x="405.68" y="282.54" width="17.61" height="17.61"/>
  <rect class="cls-1" x=".63" y="300.15" width="17.61" height="17.61"/>
  <rect class="cls-1" x="35.85" y="300.15" width="17.61" height="17.61"/>
  <rect class="cls-1" x="88.68" y="300.15" width="17.61" height="17.61"/>
  <rect class="cls-1" x="141.52" y="300.15" width="17.61" height="17.61"/>
  <rect class="cls-1" x="352.85" y="300.15" width="17.61" height="17.61"/>
  <rect class="cls-1" x="370.46" y="300.15" width="17.61" height="17.61"/>
  <rect class="cls-1" x="405.68" y="300.15" width="17.61" height="17.61"/>
  <rect class="cls-1" x="440.9" y="300.15" width="17.61" height="17.61"/>
  <rect class="cls-1" x="476.12" y="300.15" width="17.61" height="17.61"/>
  <rect class="cls-1" x=".63" y="317.76" width="17.61" height="17.61"/>
  <rect class="cls-1" x="35.85" y="317.76" width="17.61" height="17.61"/>
  <rect class="cls-1" x="71.07" y="317.76" width="17.61" height="17.61"/>
  <rect class="cls-1" x="106.29" y="317.76" width="17.61" height="17.61"/>
  <rect class="cls-1" x="123.91" y="317.76" width="17.61" height="17.61"/>
  <rect class="cls-1" x="352.85" y="317.76" width="17.61" height="17.61"/>
  <rect class="cls-1" x="370.46" y="317.76" width="17.61" height="17.61"/>
  <rect class="cls-1" x="458.51" y="317.76" width="17.61" height="17.61"/>
  <rect class="cls-1" x=".63" y="335.37" width="17.61" height="17.61"/>
  <rect class="cls-1" x="35.85" y="335.37" width="17.61" height="17.61"/>
  <rect class="cls-1" x="88.68" y="335.37" width="17.61" height="17.61"/>
  <rect class="cls-1" x="123.91" y="335.37" width="17.61" height="17.61"/>
  <rect class="cls-1" x="141.52" y="335.37" width="17.61" height="17.61"/>
  <rect class="cls-1" x="352.85" y="335.37" width="17.61" height="17.61"/>
  <rect class="cls-1" x="388.07" y="335.37" width="17.61" height="17.61"/>
  <rect class="cls-1" x="423.29" y="335.37" width="17.61" height="17.61"/>
  <rect class="cls-1" x="440.9" y="335.37" width="17.61" height="17.61"/>
  <rect class="cls-1" x="476.12" y="335.37" width="17.61" height="17.61"/>
  <rect class="cls-1" x="493.73" y="335.37" width="17.61" height="17.61"/>
  <rect class="cls-1" x=".63" y="352.99" width="17.61" height="17.61"/>
  <rect class="cls-1" x="53.46" y="352.99" width="17.61" height="17.61"/>
  <rect class="cls-1" x="106.29" y="352.99" width="17.61" height="17.61"/>
  <rect class="cls-1" x="123.91" y="352.99" width="17.61" height="17.61"/>
  <rect class="cls-1" x="194.35" y="352.99" width="17.61" height="17.61"/>
  <rect class="cls-1" x="211.96" y="352.99" width="17.61" height="17.61"/>
  <rect class="cls-1" x="229.57" y="352.99" width="17.61" height="17.61"/>
  <rect class="cls-1" x="264.79" y="352.99" width="17.61" height="17.61"/>
  <rect class="cls-1" x="317.62" y="352.99" width="17.61" height="17.61"/>
  <rect class="cls-1" x="352.85" y="352.99" width="17.61" height="17.61"/>
  <rect class="cls-1" x="370.46" y="352.99" width="17.61" height="17.61"/>
  <rect class="cls-1" x="388.07" y="352.99" width="17.61" height="17.61"/>
  <rect class="cls-1" x="405.68" y="352.99" width="17.61" height="17.61"/>
  <rect class="cls-1" x="423.29" y="352.99" width="17.61" height="17.61"/>
  <rect class="cls-1" x="476.12" y="352.99" width="17.61" height="17.61"/>
  <rect class="cls-1" x="493.73" y="352.99" width="17.61" height="17.61"/>
  <rect class="cls-1" x="141.52" y="370.6" width="17.61" height="17.61"/>
  <rect class="cls-1" x="159.13" y="370.6" width="17.61" height="17.61"/>
  <rect class="cls-1" x="211.96" y="370.6" width="17.61" height="17.61"/>
  <rect class="cls-1" x="247.18" y="370.6" width="17.61" height="17.61"/>
  <rect class="cls-1" x="264.79" y="370.6" width="17.61" height="17.61"/>
  <rect class="cls-1" x="282.4" y="370.6" width="17.61" height="17.61"/>
  <rect class="cls-1" x="317.62" y="370.6" width="17.61" height="17.61"/>
  <rect class="cls-1" x="335.23" y="370.6" width="17.61" height="17.61"/>
  <rect class="cls-1" x="352.85" y="370.6" width="17.61" height="17.61"/>
  <rect class="cls-1" x="423.29" y="370.6" width="17.61" height="17.61"/>
  <rect class="cls-1" x="440.9" y="370.6" width="17.61" height="17.61"/>
  <rect class="cls-1" x="493.73" y="370.6" width="17.61" height="17.61"/>
  <rect class="cls-1" x="247.18" y="388.21" width="17.61" height="17.61"/>
  <rect class="cls-1" x="317.62" y="388.21" width="17.61" height="17.61"/>
  <rect class="cls-1" x="335.23" y="388.21" width="17.61" height="17.61"/>
  <rect class="cls-1" x="352.85" y="388.21" width="17.61" height="17.61"/>
  <rect class="cls-1" x="388.07" y="388.21" width="17.61" height="17.61"/>
  <rect class="cls-1" x="423.29" y="388.21" width="17.61" height="17.61"/>
  <rect class="cls-1" x="440.9" y="388.21" width="17.61" height="17.61"/>
  <rect class="cls-1" x="458.51" y="388.21" width="17.61" height="17.61"/>
  <rect class="cls-1" x="476.12" y="388.21" width="17.61" height="17.61"/>
  <rect class="cls-1" x="229.57" y="405.82" width="17.61" height="17.61"/>
  <rect class="cls-1" x="247.18" y="405.82" width="17.61" height="17.61"/>
  <rect class="cls-1" x="300.01" y="405.82" width="17.61" height="17.61"/>
  <rect class="cls-1" x="317.62" y="405.82" width="17.61" height="17.61"/>
  <rect class="cls-1" x="335.23" y="405.82" width="17.61" height="17.61"/>
  <rect class="cls-1" x="352.85" y="405.82" width="17.61" height="17.61"/>
  <rect class="cls-1" x="423.29" y="405.82" width="17.61" height="17.61"/>
  <rect class="cls-1" x="440.9" y="405.82" width="17.61" height="17.61"/>
  <rect class="cls-1" x="476.12" y="405.82" width="17.61" height="17.61"/>
  <rect class="cls-1" x="493.73" y="405.82" width="17.61" height="17.61"/>
  <rect class="cls-1" x="141.52" y="423.43" width="17.61" height="17.61"/>
  <rect class="cls-1" x="159.13" y="423.43" width="17.61" height="17.61"/>
  <rect class="cls-1" x="176.74" y="423.43" width="17.61" height="17.61"/>
  <rect class="cls-1" x="194.35" y="423.43" width="17.61" height="17.61"/>
  <rect class="cls-1" x="229.57" y="423.43" width="17.61" height="17.61"/>
  <rect class="cls-1" x="247.18" y="423.43" width="17.61" height="17.61"/>
  <rect class="cls-1" x="264.79" y="423.43" width="17.61" height="17.61"/>
  <rect class="cls-1" x="300.01" y="423.43" width="17.61" height="17.61"/>
  <rect class="cls-1" x="317.62" y="423.43" width="17.61" height="17.61"/>
  <rect class="cls-1" x="335.23" y="423.43" width="17.61" height="17.61"/>
  <rect class="cls-1" x="352.85" y="423.43" width="17.61" height="17.61"/>
  <rect class="cls-1" x="370.46" y="423.43" width="17.61" height="17.61"/>
  <rect class="cls-1" x="388.07" y="423.43" width="17.61" height="17.61"/>
  <rect class="cls-1" x="405.68" y="423.43" width="17.61" height="17.61"/>
  <rect class="cls-1" x="423.29" y="423.43" width="17.61" height="17.61"/>
  <rect class="cls-1" x="141.52" y="441.04" width="17.61" height="17.61"/>
  <rect class="cls-1" x="159.13" y="441.04" width="17.61" height="17.61"/>
  <rect class="cls-1" x="176.74" y="441.04" width="17.61" height="17.61"/>
  <rect class="cls-1" x="194.35" y="441.04" width="17.61" height="17.61"/>
  <rect class="cls-1" x="211.96" y="441.04" width="17.61" height="17.61"/>
  <rect class="cls-1" x="229.57" y="441.04" width="17.61" height="17.61"/>
  <rect class="cls-1" x="247.18" y="441.04" width="17.61" height="17.61"/>
  <rect class="cls-1" x="264.79" y="441.04" width="17.61" height="17.61"/>
  <rect class="cls-1" x="300.01" y="441.04" width="17.61" height="17.61"/>
  <rect class="cls-1" x="317.62" y="441.04" width="17.61" height="17.61"/>
  <rect class="cls-1" x="352.85" y="441.04" width="17.61" height="17.61"/>
  <rect class="cls-1" x="370.46" y="441.04" width="17.61" height="17.61"/>
  <rect class="cls-1" x="388.07" y="441.04" width="17.61" height="17.61"/>
  <rect class="cls-1" x="423.29" y="441.04" width="17.61" height="17.61"/>
  <rect class="cls-1" x="440.9" y="441.04" width="17.61" height="17.61"/>
  <rect class="cls-1" x="141.52" y="458.65" width="17.61" height="17.61"/>
  <rect class="cls-1" x="159.13" y="458.65" width="17.61" height="17.61"/>
  <rect class="cls-1" x="229.57" y="458.65" width="17.61" height="17.61"/>
  <rect class="cls-1" x="247.18" y="458.65" width="17.61" height="17.61"/>
  <rect class="cls-1" x="282.4" y="458.65" width="17.61" height="17.61"/>
  <rect class="cls-1" x="300.01" y="458.65" width="17.61" height="17.61"/>
  <rect class="cls-1" x="317.62" y="458.65" width="17.61" height="17.61"/>
  <rect class="cls-1" x="370.46" y="458.65" width="17.61" height="17.61"/>
  <rect class="cls-1" x="388.07" y="458.65" width="17.61" height="17.61"/>
  <rect class="cls-1" x="405.68" y="458.65" width="17.61" height="17.61"/>
  <rect class="cls-1" x="423.29" y="458.65" width="17.61" height="17.61"/>
  <rect class="cls-1" x="458.51" y="458.65" width="17.61" height="17.61"/>
  <rect class="cls-1" x="476.12" y="458.65" width="17.61" height="17.61"/>
  <rect class="cls-1" x="159.13" y="476.26" width="17.61" height="17.61"/>
  <rect class="cls-1" x="247.18" y="476.26" width="17.61" height="17.61"/>
  <rect class="cls-1" x="264.79" y="476.26" width="17.61" height="17.61"/>
  <rect class="cls-1" x="300.01" y="476.26" width="17.61" height="17.61"/>
  <rect class="cls-1" x="317.62" y="476.26" width="17.61" height="17.61"/>
  <rect class="cls-1" x="335.23" y="476.26" width="17.61" height="17.61"/>
  <rect class="cls-1" x="405.68" y="476.26" width="17.61" height="17.61"/>
  <rect class="cls-1" x="440.9" y="476.26" width="17.61" height="17.61"/>
  <rect class="cls-1" x="493.73" y="476.26" width="17.61" height="17.61"/>
  <rect class="cls-1" x="176.74" y="493.87" width="17.61" height="17.61"/>
  <rect class="cls-1" x="194.35" y="493.87" width="17.61" height="17.61"/>
  <rect class="cls-1" x="247.18" y="493.87" width="17.61" height="17.61"/>
  <rect class="cls-1" x="300.01" y="493.87" width="17.61" height="17.61"/>
  <rect class="cls-1" x="317.62" y="493.87" width="17.61" height="17.61"/>
  <rect class="cls-1" x="352.85" y="493.87" width="17.61" height="17.61"/>
  <rect class="cls-1" x="370.46" y="493.87" width="17.61" height="17.61"/>
  <rect class="cls-1" x="405.68" y="493.87" width="17.61" height="17.61"/>
  <rect class="cls-1" x="423.29" y="493.87" width="17.61" height="17.61"/>
  <rect class="cls-1" x="440.9" y="493.87" width="17.61" height="17.61"/>
  <path class="cls-1" d="M4.36,.75C2.3,.75,.61,2.44,.61,4.5V120.31c0,2.06,1.67,3.75,3.75,3.75H120.17c2.06,0,3.75-1.67,3.75-3.75V4.5c0-2.06-1.67-3.75-3.75-3.75,0,0-115.81,0-115.81,0ZM106.29,35.99V104.29c0,1.2-.97,2.15-2.15,2.15H20.39c-1.2,0-2.15-.97-2.15-2.15V20.53c0-1.2,.97-2.15,2.15-2.15H104.15c1.2,0,2.15,.97,2.15,2.15v15.46Z"/>
  <path class="cls-1" d="M88.68,71.21v-31.49c0-2.06-1.67-3.75-3.75-3.75H39.58c-2.06,0-3.75,1.67-3.75,3.75v45.37c0,2.06,1.67,3.75,3.75,3.75h45.35c2.06,0,3.75-1.67,3.75-3.75v-13.88Z"/>
  <path class="cls-1" d="M391.8,.75c-2.06,0-3.75,1.69-3.75,3.75V120.31c0,2.06,1.67,3.75,3.75,3.75h115.81c2.06,0,3.75-1.67,3.75-3.75V4.5c0-2.06-1.67-3.75-3.75-3.75,0,0-115.81,0-115.81,0Zm101.93,35.24V104.29c0,1.2-.97,2.15-2.15,2.15h-83.76c-1.2,0-2.15-.97-2.15-2.15V20.53c0-1.2,.97-2.15,2.15-2.15h83.76c1.2,0,2.15,.97,2.15,2.15v15.46Z"/>
  <path class="cls-1" d="M476.12,71.21v-31.49c0-2.06-1.67-3.75-3.75-3.75h-45.35c-2.06,0-3.75,1.67-3.75,3.75v45.37c0,2.06,1.67,3.75,3.75,3.75h45.35c2.06,0,3.75-1.67,3.75-3.75v-13.88Z"/>
  <path class="cls-1" d="M4.36,388.19c-2.06,0-3.75,1.69-3.75,3.75v115.81c0,2.06,1.67,3.75,3.75,3.75H120.17c2.06,0,3.75-1.67,3.75-3.75v-115.81c0-2.06-1.67-3.75-3.75-3.75,0,0-115.81,0-115.81,0Zm101.93,35.24v68.29c0,1.2-.97,2.15-2.15,2.15H20.39c-1.2,0-2.15-.97-2.15-2.15v-83.76c0-1.2,.97-2.15,2.15-2.15H104.15c1.2,0,2.15,.97,2.15,2.15v15.46Z"/>
  <path class="cls-1" d="M88.68,458.65v-31.49c0-2.06-1.67-3.75-3.75-3.75H39.58c-2.06,0-3.75,1.67-3.75,3.75v45.37c0,2.06,1.67,3.75,3.75,3.75h45.35c2.06,0,3.75-1.67,3.75-3.75v-13.88Z"/>
</svg>