<?xml version="1.0" encoding="UTF-8"?>
<svg id="Capa_1" data-name="Capa 1" xmlns="http://www.w3.org/2000/svg" viewBox="0 0 512 512">
  <defs>
    <style>
      .cls-1 {
        fill: #004b92;
      }

      .cls-2 {
        fill: #55b232;
      }
    </style>
  </defs>
  <path class="cls-2" d="M279.66,53.57c-.18,.5,.2,.51,.5,.52,4.75,.15,9.41,.94,14.06,1.85,5.39,1.05,10.65,2.57,15.81,4.47,4.36,1.61,8.63,3.43,12.75,5.58,5.98,3.11,11.63,6.75,16.98,10.86,3.42,2.63,6.59,5.55,9.76,8.47,.4,.37,.78,.66,.18,1.26-6.38,6.34-12.73,12.7-19.03,19-18.02-17.32-39.45-25.67-64.34-23.95-24.3,1.68-44.22,12.37-59.22,31.56-28.82,36.88-20.09,86.05,9.6,112.04,.46-.38,.24-.9,.24-1.35,.01-20.03-.16-40.05,.06-60.08,.19-17.5,7.31-31.86,20.88-42.93,8.16-6.66,17.6-10.52,28.05-11.67,9.89-1.09,19.43,.4,28.58,4.42,7.29,3.2,13.57,7.8,18.83,13.7,6.89,7.73,11.34,16.72,13.17,26.98,.62,3.44,.98,6.91,.9,10.37-.26,12.2-3.98,23.24-11.43,32.99-5.01,6.56-11.2,11.7-18.48,15.48-6,3.12-12.4,5.1-19.17,5.83-11.82,1.26-22.92-.96-33.3-6.77-.06-.04-.16,0-.29,0-.28,.47-.13,1.01-.13,1.52,0,18.52,0,37.04,0,55.56q0,1.74-1.69,1.28c-38.97-10.59-69.65-42.75-78.42-82.15-1.19-5.33-1.96-10.7-2.4-16.14-.4-5-.52-10.02-.14-14.98,2.09-27.68,12.75-51.54,32.33-71.33,7.91-7.99,16.91-14.49,26.85-19.75,8.9-4.71,18.28-8.02,28.08-10.14,4.82-1.04,9.71-1.78,14.66-1.97,.31-.01,.8,.12,.63-.51h15.15Zm20.16,110.98c0-15.03-11.33-27.55-26.87-27.97-15.24-.41-27.54,10.84-28.29,26.27-.78,16.07,11.69,28.83,27.4,28.83,15.24,0,26.92-11.74,27.76-27.13Z"/>
  <path class="cls-1" d="M512,409.25c-2.69-.28-5.4-.1-8.09-.1-1.02,0-1.57-.3-2.02-1.26-7.71-16.38-15.46-32.74-23.22-49.1-.22-.45-.31-1.01-.84-1.32-.3,.52-.16,1.06-.16,1.56,0,16.04,0,32.07,0,48.11q0,1.98-1.91,1.98c-4.3,0-8.59-.03-12.89,.02-1.14,.01-1.62-.23-1.62-1.53,.04-33.62,.03-67.25,0-100.87,0-1.22,.4-1.49,1.52-1.45,2.26,.08,4.52,.07,6.78,0,1-.03,1.47,.34,1.88,1.23,7.6,16.09,15.24,32.17,22.88,48.24,.3,.63,.49,1.32,1.08,1.92,.42-.54,.25-1.13,.25-1.66,0-15.95,0-31.9,0-47.85q0-1.86,1.87-1.86c4.83,0,9.66,0,14.49,0v103.94Z"/>
  <path class="cls-2" d="M0,324.45c.73,.07,.49-.54,.55-.87,.67-3.47,1.9-6.71,3.86-9.68,3.23-4.88,7.85-7.73,13.44-9.02,4.95-1.14,9.96-1.11,14.85,.27,8.52,2.41,13.54,8.21,15.67,16.66,1.35,5.34,.84,10.8,.93,16.21,.01,.65-.32,.82-.91,.81-4.83-.01-9.66-.02-14.49,0-.77,0-.98-.28-.97-1.01,.03-2.57,.06-5.14,0-7.71-.04-1.39-.26-2.78-.42-4.16-.39-3.32-2.58-4.76-5.6-5.3-2.13-.38-4.26-.27-6.29,.4-2.89,.95-3.68,3.45-4.09,6.11-.13,.83-.1,1.68-.1,2.52,0,18.34,0,36.68,0,55.02,0,1.74,.14,3.44,.74,5.1,.68,1.9,2.01,3.05,3.91,3.66,2.43,.79,4.85,.7,7.27,0,2.71-.79,4.14-2.83,4.41-5.82,.31-3.4,.15-6.8,.2-10.2,.03-1.68,.03-3.37,0-5.05-.02-.71,.16-1.05,.94-1.04,4.83,.02,9.66,.01,14.49,0,.56,0,.95,.11,.93,.8-.18,6.49,.54,13.02-.67,19.47-1.92,10.27-9.69,17.35-20.08,18.44-5.01,.53-9.91,.17-14.58-1.78-7.77-3.23-11.77-9.43-13.42-17.42-.08-.38,.2-1.01-.56-1.04v-65.39Z"/>
  <path class="cls-2" d="M170.67,428.64c-.57,.02-1.15,.05-1.72,.05-55.7,0-111.39,0-167.09,0-.62,0-1.24-.03-1.86-.04,0-1.86,0-3.72,0-5.58,.62-.01,1.24-.04,1.86-.04,55.7,0,111.39,0,167.09,0,.57,0,1.15,.03,1.72,.05v5.56Z"/>
  <path class="cls-2" d="M512,428.66c-.53,.01-1.06,.04-1.59,.04-55.83,0-111.66,0-167.48,0-.53,0-1.06-.04-1.59-.05v-5.56c.53-.02,1.06-.05,1.59-.05,55.83,0,111.66,0,167.48,0,.53,0,1.06,.03,1.59,.04v5.58Z"/>
  <path class="cls-1" d="M0,438.76c3.85,0,7.69,0,11.54,0,.7,0,1.31-.05,1.29,.99-.02,.95-.58,.93-1.23,.93-.93,0-1.86,.06-2.78-.02-1.09-.09-1.37,.39-1.34,1.39,.06,1.85,.02,3.71,.02,5.57q0,6.57-1.13,6.56t-1.05-6.62c0-1.86-.06-3.72,.02-5.57,.05-1.07-.34-1.39-1.36-1.34-1.32,.06-2.65-.01-3.98-.03v-1.86Z"/>
  <path class="cls-1" d="M72.31,458.43c.21-.4-.39-.59-.26-.95,.21-.59,.2-1.29,1.27-1.03,1.97,.49,2.7-.17,2.7-2.23,.01-3.5,.02-7,0-10.49,0-.85,.13-1.28,1.14-1.28,1.02,0,1.01,.54,1.01,1.26-.01,3.45-.02,6.91,0,10.36,0,1.58-.29,3-1.75,3.91-.16,.1-.23,.26-.11,.44h-3.99Z"/>
  <path class="cls-2" d="M117.81,357.29c0-16.79,.01-33.58-.03-50.37,0-1.24,.24-1.66,1.58-1.64,7.53,.08,15.07-.1,22.59,.12,7.59,.22,14.11,2.95,18.6,9.39,3.03,4.35,4.26,9.32,4.28,14.56,.02,5.04,.35,10.1-.27,15.13-.51,4.1-1.98,7.79-4.87,10.83-.42,.44-.68,.74-.04,1.25,4.61,3.58,6.76,8.53,7.18,14.14,.47,6.26,.65,12.58-.17,18.83-1.45,11.03-9.99,18.9-21.1,19.43-8.9,.43-17.8,.08-26.71,.18-1.08,.01-1.07-.58-1.07-1.35,.01-9.13,0-18.25,0-27.38,0-7.71,0-15.42,0-23.12Zm16.4,21.87c0,4.12,0,8.24,0,12.36,0,.04,0,.09,0,.13,0,.59-.08,1.15,.83,1.13,2.97-.06,5.94,.08,8.9-.11,4.42-.27,6.23-1.85,6.6-6.25,.41-4.93,.49-9.92-.09-14.85-.45-3.81-2.63-5.73-6.48-5.92-2.83-.14-5.67-.06-8.5-.14-.99-.03-1.29,.29-1.28,1.29,.05,4.12,.02,8.24,.02,12.36Zm0-43.67c0,4.16,0,8.32,0,12.49,0,.62-.12,1.25,.88,1.22,2.12-.06,4.26,.06,6.37-.06,4.16-.24,6.38-2.18,6.81-6.21,.54-5.11,.53-10.26,0-15.38-.39-3.77-2.42-5.54-6.24-5.74-2.16-.12-4.34-.05-6.5-.15-1.04-.05-1.36,.31-1.35,1.35,.05,4.16,.02,8.32,.02,12.49Z"/>
  <path class="cls-2" d="M176.78,357.21c0-16.79,.01-33.58-.02-50.37,0-1.18,.25-1.56,1.51-1.55,8.15,.07,16.31-.13,24.45,.1,13.8,.4,23.1,10.05,23.28,23.87,.06,4.78,.11,9.57-.01,14.35-.19,7.71-2.74,14.39-9.06,19.24-.58,.44-.56,.91-.44,1.51,2.88,14.04,5.76,28.09,8.63,42.14q.54,2.63-2.1,2.63c-4.16,0-8.33-.05-12.49,.03-1.2,.02-1.65-.31-1.89-1.53-2.57-12.93-5.24-25.85-7.82-38.78-.22-1.12-.64-1.46-1.74-1.39-1.55,.09-3.1,.07-4.65,0-.91-.04-1.25,.24-1.22,1.19,.06,2.04,.02,4.08,.02,6.11,0,10.94-.02,21.89,.03,32.83,0,1.22-.33,1.58-1.55,1.56-4.52-.07-9.04-.06-13.56,0-1.13,.02-1.38-.35-1.38-1.43,.03-16.84,.02-33.67,.02-50.51Zm32.94-20.75c-.13-2.83,.17-5.66-.24-8.49-.59-4.02-2.76-6.05-6.83-6.2-2.79-.1-5.58-.06-8.36-.11-.78-.02-1.09,.24-1.08,1.06,.02,9.12,.02,18.24,0,27.36,0,.73,.22,1.02,.98,1.01,2.83-.04,5.67,.05,8.5-.06,4.15-.16,6.27-2.22,6.82-6.35,.37-2.74,.08-5.48,.21-8.22Z"/>
  <path class="cls-2" d="M283.52,357.23c0,9.44,.02,18.87,0,28.31-.01,4.03-.7,7.94-2.39,11.62-2.72,5.9-7.13,9.96-13.38,11.87-5.74,1.75-11.56,1.84-17.28,.1-9.18-2.79-14.04-9.39-15.7-18.6-.4-2.23-.5-4.49-.5-6.75,0-17.94-.01-35.89,.01-53.83,0-4.42,.59-8.75,2.51-12.8,3.83-8.09,10.45-12.12,19.18-12.88,4.58-.4,9.14-.08,13.45,1.71,8.06,3.34,12.26,9.67,13.72,18.05,.33,1.88,.41,3.78,.41,5.69,0,9.17,0,18.34,0,27.51Zm-32.83-.09c0,9.35,0,18.69,0,28.04,0,1.07,.09,2.12,.3,3.17,.64,3.19,2.22,4.8,5.44,5.36,1.75,.31,3.53,.27,5.29-.04,2.74-.49,4.41-2.1,5.04-4.8,.29-1.26,.43-2.52,.43-3.82,0-18.56,0-37.12-.01-55.68,0-.84-.06-1.68-.18-2.51-.63-4.16-2.29-5.89-6.46-6.26-6.86-.61-9.81,1.8-9.83,8.63-.03,9.3,0,18.6,0,27.9Z"/>
  <path class="cls-2" d="M107.36,357.25c0,9.79,.15,19.58-.05,29.37-.15,7.33-2.66,13.8-8.51,18.6-4.56,3.74-9.98,5.03-15.74,5.08-6.29,.05-12.17-1.34-17-5.63-5.16-4.58-7.72-10.56-7.78-17.31-.18-20.11-.23-40.23,.02-60.34,.1-7.91,3.42-14.6,10.25-19.12,4.45-2.94,9.48-3.81,14.7-3.75,4.35,.05,8.56,.8,12.4,2.97,7.1,4.01,10.49,10.38,11.48,18.25,.43,3.4,.24,6.81,.25,10.22,.03,7.22,0,14.44,0,21.66h-.04Zm-16.31,.03c0-8.85,0-17.71,0-26.56,0-1.11-.04-2.21-.14-3.31-.33-3.73-2.2-6.08-5.32-6.63-1.3-.23-2.62-.34-3.95-.27-4.02,.2-6.28,2.15-6.89,6.02-.16,1.05-.25,2.11-.26,3.17-.02,18.33-.01,36.66,0,54.99,0,1.06,.09,2.12,.25,3.17,.52,3.49,2.17,5.27,5.54,5.86,1.75,.31,3.52,.27,5.28-.04,2.88-.51,4.48-2.28,5.09-5.07,.33-1.52,.38-3.07,.38-4.62,.01-8.9,0-17.8,0-26.7Z"/>
  <path class="cls-1" d="M425.09,305.31c2.21,0,4.43,.07,6.64-.03,1.17-.05,1.59,.36,1.8,1.47,2.1,10.72,4.26,21.43,6.4,32.15,4.57,22.86,9.14,45.72,13.71,68.59,.31,1.55,.27,1.63-1.24,1.63-4.61,0-9.21-.02-13.82,.02-1,.01-1.39-.34-1.55-1.31-.77-4.54-1.63-9.06-2.39-13.6-.19-1.14-.55-1.65-1.83-1.63-5.18,.08-10.36,.06-15.55,.01-1.12-.01-1.63,.29-1.82,1.48-.73,4.5-1.62,8.97-2.37,13.47-.2,1.18-.63,1.6-1.87,1.58-4.52-.08-9.03-.03-13.55-.03-1.56,0-1.57-.02-1.26-1.56,4.1-20.53,8.21-41.06,12.32-61.59,2.61-13.06,5.25-26.13,7.82-39.2,.22-1.13,.61-1.54,1.78-1.49,2.25,.1,4.52,.03,6.78,.03Zm.03,34.67c-.22,.43-.28,.5-.3,.58-2.03,11.51-4.04,23.01-6.08,34.52-.17,.96,.13,1.23,1.08,1.22,3.5-.04,7-.05,10.5,0,1.01,.01,1.15-.31,.98-1.24-1.51-8.45-2.97-16.91-4.45-25.37-.55-3.12-1.11-6.25-1.72-9.71Z"/>
  <path class="cls-1" d="M289.76,357.09c0-16.7,.01-33.4-.03-50.11,0-1.31,.29-1.72,1.67-1.7,7.71,.07,15.42,0,23.13,.04,6.97,.04,13.15,2.08,18.09,7.25,4.05,4.25,5.96,9.45,6.23,15.16,.3,6.41,.49,12.85-.17,19.25-1.21,11.67-10,19.96-21.72,20.52-2.92,.14-5.84,.12-8.77,.15-2.06,.02-2.06,0-2.06,2.02,0,12.45,0,24.9,0,37.35q0,2.11-2.06,2.11c-4.25,0-8.51-.04-12.76,.02-1.19,.02-1.57-.31-1.56-1.56,.04-16.83,.03-33.67,.03-50.5Zm16.36-20.6c0,4.47,.02,8.94-.02,13.41,0,1.02,.32,1.4,1.37,1.38,2.52-.06,5.04,.02,7.57-.03,4.5-.09,6.99-2.14,7.37-6.36,.5-5.56,.5-11.14,0-16.7-.37-4.19-2.68-6.24-6.88-6.41-2.56-.1-5.13-.02-7.69-.13-1.31-.06-1.78,.34-1.75,1.71,.08,4.38,.03,8.76,.03,13.14Z"/>
  <path class="cls-1" d="M364.2,348.99c0,14.04,.02,28.09-.03,42.13,0,1.35,.35,1.69,1.69,1.68,7.8-.06,15.59,0,23.39-.06,1.31-.01,1.63,.39,1.61,1.64-.07,4.43-.06,8.86,0,13.29,.01,1.06-.25,1.47-1.39,1.47-13.42-.03-26.85-.03-40.27,0-1.08,0-1.45-.31-1.45-1.43,.03-33.67,.03-67.33,0-101,0-1.09,.3-1.44,1.41-1.43,4.56,.06,9.13,.06,13.69,0,1.15-.02,1.38,.38,1.38,1.44-.03,14.09-.02,28.17-.02,42.26Z"/>
  <path class="cls-1" d="M272.22,260.68c0-4.16,.02-8.33-.02-12.49,0-.98,.19-1.36,1.3-1.39,21.81-.54,40.61-8.38,56.37-23.47,.76-.73,1.13-.6,1.79,.06,5.9,5.94,11.81,11.87,17.77,17.76,.79,.78,.66,1.19-.06,1.88-15.81,15.25-34.44,25.13-56,29.42-6.49,1.29-13.05,1.92-19.66,2.04-1.14,.02-1.53-.25-1.51-1.46,.08-4.12,.03-8.24,.03-12.36Z"/>
  <path class="cls-1" d="M341.33,423.09v5.56c-.57,.02-1.15,.05-1.72,.05-55.74,0-111.48,0-167.22,0-.57,0-1.15-.03-1.72-.05v-5.56c.57-.02,1.15-.05,1.72-.05,55.74,0,111.48,0,167.22,0,.57,0,1.15,.04,1.72,.05Z"/>
  <path class="cls-1" d="M126.01,444.06c0-1.89,.03-3.55-.01-5.21-.02-.82,.18-1.17,1.1-1.18,.97,0,1.06,.45,1.05,1.22-.02,4.56,.01,9.11-.04,13.67,0,.56,.51,1.47-.71,1.64-1.16,.16-1.44-.47-1.42-1.61-1.73,1.38-3.51,1.94-5.54,1.4-1.29-.34-2.36-.98-3.14-2.07-1.66-2.3-1.45-5.74,.47-7.72,2.06-2.12,5.08-2.24,8.24-.13Zm0,4.32c.02-2.38-1.52-4.01-3.79-4.04-2.27-.02-3.89,1.61-3.92,3.93-.02,2.32,1.57,4.01,3.81,4.04,2.28,.03,3.87-1.58,3.89-3.93Z"/>
  <path class="cls-1" d="M310.76,443.97c0-1.72,0-3.26,0-4.81,0-.71-.24-1.49,1.03-1.5,1.34-.02,1.09,.81,1.09,1.57,0,4.47,.02,8.94-.02,13.4,0,.58,.45,1.45-.8,1.57-1.15,.1-1.35-.5-1.3-1.65-1.85,1.52-3.78,2-5.91,1.33-1.17-.37-2.15-1.02-2.86-2.05-1.57-2.25-1.4-5.55,.39-7.52,1.99-2.19,4.86-2.35,8.37-.35Zm0,4.33c0-2.36-1.59-3.97-3.87-3.96-2.26,.02-3.85,1.68-3.84,4.01,.01,2.31,1.64,3.97,3.89,3.96,2.27,0,3.82-1.64,3.81-4.01Z"/>
  <path class="cls-1" d="M45.72,444.05c3.25-2.15,6.41-1.95,8.42,.32,1.89,2.14,1.88,5.81-.02,7.94-2.02,2.26-5.22,2.44-8.17,.43-.59,.28,.05,1.14-.67,1.4-.98,.36-1.68-.08-1.68-1.18,0-4.69,0-9.38-.01-14.07,0-.75,.06-1.22,1.04-1.23,1.05-.01,1.12,.49,1.11,1.3-.04,1.62-.01,3.24-.01,5.09Zm7.71,4.25c0-2.32-1.63-3.96-3.89-3.95-2.28,.01-3.82,1.64-3.81,4.01,0,2.36,1.59,3.97,3.87,3.96,2.25-.02,3.84-1.69,3.84-4.01Z"/>
  <path class="cls-1" d="M435.3,449.08c-1.28,0-2.57,.03-3.85,0-1.11-.04-1.04,.47-.65,1.21,1.05,1.98,4.15,2.66,6.48,1.41,.27-.15,.52-.39,.81-.45,.54-.11,.73,.41,1,.73,.34,.4,0,.63-.27,.87-1.79,1.63-5.5,1.79-7.89,.35-2.17-1.31-3.12-3.85-2.42-6.47,.75-2.83,3.47-4.58,6.54-4.19,2.96,.37,5.03,2.64,5.12,5.53,.02,.76-.28,1.04-1.01,1.02-1.28-.02-2.57,0-3.85,0h0Zm-1.12-1.55c1.06,0,2.12-.02,3.18,0,.65,.01,.72-.25,.55-.81-.43-1.38-1.8-2.36-3.46-2.42-1.81-.06-3.29,.84-3.82,2.28-.24,.66-.17,.99,.63,.96,.97-.04,1.94,0,2.91-.01Z"/>
  <path class="cls-1" d="M324.95,449.08c-1.24,0-2.48-.01-3.72,0-1.17,.02-1.3,.28-.68,1.33,1.08,1.82,3.98,2.48,6.18,1.39,.28-.14,.53-.32,.8-.47,.64-.35,.85,.23,1.16,.55,.41,.42,.1,.69-.22,.97-1.86,1.65-5.64,1.78-8.01,.25-2.15-1.39-3.04-4.04-2.22-6.67,.83-2.69,3.66-4.35,6.62-3.89,2.9,.45,4.9,2.71,4.97,5.54,.02,.78-.32,1.02-1.03,1-1.28-.02-2.57,0-3.85,0h0Zm-1.05-1.55c1.02,0,2.03-.02,3.05,0,.67,.02,.85-.2,.62-.86-.48-1.42-1.88-2.37-3.62-2.38-1.74,0-3.16,.92-3.66,2.32-.27,.75-.02,.94,.7,.91,.97-.03,1.94,0,2.91,0Z"/>
  <path class="cls-1" d="M209.79,449.08c-1.2,0-2.39-.01-3.59,.01-.37,0-.87-.2-1.06,.27-.15,.39,.13,.76,.34,1.1,1.11,1.8,4.02,2.42,6.2,1.31,.28-.14,.52-.34,.8-.47,.64-.3,.83,.31,1.14,.63,.35,.36,.08,.62-.2,.88-1.67,1.6-5.37,1.83-7.78,.47-2.22-1.25-3.26-3.78-2.62-6.39,.7-2.89,3.3-4.68,6.4-4.39,3.02,.28,5.15,2.52,5.3,5.5,.04,.85-.31,1.1-1.08,1.08-1.28-.03-2.57,0-3.85,0Zm-1.05-1.55c1.06,0,2.12-.02,3.18,0,.63,.01,.74-.22,.57-.8-.43-1.42-1.85-2.41-3.58-2.43-1.8-.03-3.28,.96-3.74,2.4-.23,.7,.03,.85,.66,.84,.97-.02,1.94,0,2.91,0Z"/>
  <path class="cls-1" d="M461.82,449.08c-1.24,0-2.48,.04-3.72,0-1.18-.05-1.14,.46-.69,1.27,1.12,2.01,4.2,2.63,6.6,1.23,.68-.4,1.08-.39,1.55,.23,.32,.42,.25,.67-.1,1-1.75,1.7-5.72,1.84-8.12,.28-2.18-1.42-3.04-4.19-2.13-6.82,.87-2.53,3.5-4.08,6.35-3.75,2.89,.33,4.78,2.28,5.15,5.21,.12,.97-.12,1.41-1.16,1.37-1.24-.06-2.48-.01-3.72-.01Zm-1.09-1.55c1.02,0,2.03-.02,3.05,0,.71,.02,.97-.15,.69-.91-.51-1.38-1.85-2.3-3.52-2.33-1.75-.03-3.17,.86-3.71,2.25-.3,.77-.09,1.03,.72,.99,.92-.04,1.85-.01,2.78-.01Z"/>
  <path class="cls-1" d="M490.83,449.08c-1.2,0-2.39-.01-3.59,0-.38,0-.88-.18-1.09,.23-.22,.43,.12,.85,.36,1.21,1.12,1.74,3.97,2.33,6.11,1.26,.28-.14,.53-.32,.8-.47,.64-.35,.85,.24,1.16,.56,.41,.42,.09,.69-.23,.97-1.87,1.65-5.64,1.77-8.01,.24-2.15-1.39-3.03-4.05-2.22-6.68,.84-2.69,3.67-4.35,6.63-3.88,2.9,.45,4.9,2.72,4.96,5.54,.02,.78-.34,1.01-1.04,1-1.28-.02-2.57,0-3.85,0h0Zm-1.12-1.55c1.02,0,2.03-.02,3.05,0,.71,.02,.96-.16,.69-.91-.51-1.38-1.85-2.3-3.52-2.33-1.75-.03-3.17,.86-3.71,2.25-.3,.77-.09,1.03,.72,.99,.92-.04,1.85-.01,2.78-.01Z"/>
  <path class="cls-1" d="M165.98,452.79c-1.82,1.4-3.59,1.69-5.49,1.13-1.61-.48-2.59-1.69-2.57-3.15,.02-1.51,.97-2.56,2.69-3,1.4-.36,2.82-.25,4.23-.21,1.1,.03,1.16-.51,.94-1.32-.33-1.17-1.17-1.74-2.33-1.86-1.26-.14-2.48,.06-3.58,.72-.53,.31-.84,.28-1.16-.28-.31-.56-.38-.97,.27-1.3,2.19-1.13,4.46-1.47,6.77-.46,1.66,.73,2.2,2.23,2.25,3.92,.05,1.86,.06,3.72-.01,5.57-.02,.55,.5,1.43-.56,1.62-.87,.16-1.63,.04-1.45-1.37Zm-2.49-3.71c-.71,.03-1.56-.09-2.37,.23-.58,.22-.99,.58-1.06,1.23-.08,.68,.19,1.2,.76,1.57,1.38,.9,3.87,.37,4.77-1,.35-.53,.4-1.11,.22-1.65-.2-.61-.83-.31-1.27-.37-.3-.04-.62,0-1.05,0Z"/>
  <path class="cls-1" d="M35.09,452.88c-1.66,1.25-3.38,1.59-5.24,1.08-1.7-.47-2.73-1.66-2.72-3.17,.01-1.55,1-2.61,2.8-3.05,1.36-.33,2.73-.23,4.1-.19,1.07,.03,1.2-.46,.97-1.3-.33-1.17-1.16-1.75-2.31-1.88-1.26-.14-2.49,.04-3.58,.71-.63,.39-.91,.18-1.24-.37-.38-.63-.15-.98,.41-1.26,2.07-1.04,4.22-1.36,6.42-.53,1.81,.68,2.45,2.22,2.51,4.01,.06,1.9,.05,3.81,0,5.71-.01,.52,.42,1.32-.54,1.51-.91,.18-1.55-.07-1.57-1.27Zm-2.52-3.8c-.64,.04-1.49-.09-2.29,.25-.58,.24-.96,.62-1.01,1.27-.06,.63,.19,1.11,.71,1.47,1.37,.96,4,.42,4.86-1.01,.7-1.15,.29-1.95-1-1.98-.35,0-.71,0-1.25,0Z"/>
  <path class="cls-1" d="M67.49,452.88c-1.7,1.32-3.47,1.6-5.37,1.04-1.61-.48-2.59-1.7-2.56-3.16,.03-1.51,.98-2.55,2.7-3,1.35-.35,2.73-.26,4.1-.21,1.23,.05,1.33-.51,1.02-1.45-.36-1.1-1.2-1.61-2.29-1.73-1.26-.14-2.48,.07-3.58,.72-.53,.32-.84,.26-1.16-.29-.32-.56-.37-.97,.27-1.3,2.19-1.12,4.46-1.47,6.77-.46,1.66,.73,2.2,2.24,2.24,3.92,.05,1.86,.06,3.72-.01,5.57-.02,.55,.5,1.4-.56,1.62-.93,.19-1.5-.17-1.57-1.28Zm-2.3-3.8c-.72,.03-1.56-.09-2.38,.21-.63,.23-1.07,.62-1.12,1.33-.05,.69,.26,1.19,.84,1.53,1.34,.8,3.63,.34,4.59-.89,.42-.54,.51-1.16,.34-1.75-.21-.71-.89-.34-1.37-.42-.26-.04-.53,0-.91,0Z"/>
  <path class="cls-1" d="M93.57,450.05c0,1.06,0,2.12,0,3.19,0,.44,.05,.97-.62,.91-.47-.04-1.18,.33-1.31-.47-.16-1.01-.55-.55-1.03-.27-1.64,.99-3.36,1.01-5.1,.29-1.38-.57-2.13-1.78-2.03-3.12,.1-1.32,.92-2.29,2.35-2.74,1.42-.45,2.89-.3,4.35-.32,1.3-.02,1.54-.38,1.05-1.59-.41-1.03-1.24-1.47-2.27-1.57-1.27-.13-2.48,.08-3.58,.75-.57,.35-.85,.17-1.14-.35-.28-.49-.33-.84,.2-1.23,1.68-1.22,5.33-1.43,7.13-.37,1.41,.83,1.89,2.17,1.97,3.7,.05,1.06,.01,2.12,.01,3.19h0Zm-4.44-.98s0-.02,0-.03c-.66,.04-1.32,.06-1.98,.12-.21,.02-.43,.11-.63,.21-1.09,.53-1.25,1.83-.32,2.6,1.33,1.11,4.22,.52,5.04-1.02,.6-1.13,.2-1.85-1.05-1.88-.35,0-.71,0-1.06,0Z"/>
  <path class="cls-1" d="M282.42,442.48c3.46-.02,6.03,2.49,6.01,5.87-.01,3.32-2.55,5.8-5.94,5.82-3.43,.02-6.04-2.52-6.02-5.88,.02-3.32,2.55-5.8,5.94-5.81Zm-3.82,5.78c-.03,2.32,1.55,4.01,3.79,4.05,2.25,.04,3.88-1.6,3.91-3.92,.03-2.35-1.54-4.02-3.78-4.04-2.27-.02-3.89,1.59-3.92,3.92Z"/>
  <path class="cls-1" d="M139.41,454.17c-3.38-.01-5.94-2.51-5.95-5.81-.02-3.37,2.56-5.9,6.01-5.88,3.45,.02,6,2.56,5.95,5.94-.05,3.32-2.61,5.77-6,5.75Zm3.88-5.81c.02-2.35-1.55-4.01-3.8-4.02-2.27-.01-3.88,1.61-3.9,3.94-.02,2.32,1.57,4,3.81,4.03,2.25,.03,3.87-1.61,3.89-3.94Z"/>
  <path class="cls-1" d="M363.01,452.68c-1.19,.99-2.54,1.56-4.11,1.5-2.87-.11-4.67-1.79-4.78-4.64-.08-2.03,0-4.08-.04-6.11-.02-.8,.34-.95,1.04-.96,.75,0,1.14,.16,1.11,1.02-.05,1.73-.02,3.45-.01,5.18,.02,2.37,1.05,3.54,3.14,3.59,2.17,.05,3.64-1.25,3.74-3.45,.08-1.72,.06-3.46,.01-5.18-.02-.83,.19-1.17,1.1-1.18,.98,0,1.06,.46,1.05,1.23-.02,3.06,0,6.11-.02,9.17,0,.54,.3,1.27-.76,1.35-.95,.07-1.27-.33-1.29-1.18,0-.08-.08-.15-.2-.34Z"/>
  <path class="cls-1" d="M102.08,444.08c1.61-1.36,3.18-1.81,4.93-1.52,2.25,.37,3.65,1.88,3.79,4.3,.12,2.16,.02,4.34,.06,6.5,.01,.79-.44,.83-1.02,.82-.61,0-1.14,.02-1.12-.87,.04-1.81,.02-3.63,0-5.44-.02-2.28-1-3.42-2.94-3.48-2.09-.07-3.57,1.22-3.67,3.35-.09,1.77-.06,3.54-.01,5.31,.02,.86-.25,1.15-1.13,1.15-.86,0-1.03-.36-1.02-1.12,.03-3.01-.02-6.02,.03-9.03,0-.57-.49-1.47,.76-1.6,1.09-.11,1.41,.4,1.35,1.62Z"/>
  <path class="cls-1" d="M403.47,443.89c.83-.65,1.75-1.15,2.81-1.34,3.08-.55,5.53,1.24,5.72,4.35,.13,2.12,.01,4.25,.06,6.37,.02,.84-.43,.91-1.08,.91-.67,0-1.09-.09-1.07-.92,.04-1.81,.03-3.63,0-5.44-.03-2.2-.98-3.32-2.86-3.42-2.09-.11-3.62,1.16-3.74,3.27-.1,1.72-.04,3.45-.03,5.18,0,.73,.09,1.37-1.04,1.37-1.05,0-1.11-.5-1.1-1.31,.03-3.05,0-6.11,.02-9.16,0-.58-.2-1.26,.83-1.28,.89-.02,1.35,.21,1.29,1.15,0,.06,.09,.13,.19,.29Z"/>
  <path class="cls-1" d="M194.24,454.18c-1.66-.01-2.98-.31-4.25-.89-.48-.22-.87-.48-.48-1.1,.3-.48,.45-1.08,1.26-.65,1.33,.71,2.78,.89,4.25,.74,.84-.09,1.79-.25,1.9-1.31,.11-1.14-.88-1.3-1.69-1.49-1.12-.27-2.26-.42-3.37-.71-1.3-.35-2.18-1.15-2.31-2.58-.11-1.27,.58-2.45,1.91-3.06,2.14-.99,4.31-.76,6.45,.03,.45,.16,.82,.4,.48,.98-.29,.48-.44,1.11-1.26,.71-.93-.46-1.95-.59-2.97-.53-.44,.02-.88,.09-1.3,.21-.62,.19-1.15,.54-1.17,1.27-.02,.75,.48,1.12,1.11,1.3,.68,.2,1.38,.3,2.06,.47,.81,.2,1.66,.33,2.43,.64,2.12,.87,2.46,3.37,.68,4.83-1.16,.95-2.57,1.1-3.74,1.14Z"/>
  <path class="cls-1" d="M374.57,454.18c-1.35,0-2.64-.26-3.87-.8-.52-.23-1.12-.4-.67-1.23,.35-.65,.64-.94,1.42-.53,1.37,.71,2.88,.86,4.4,.62,.75-.12,1.55-.37,1.6-1.31,.06-.98-.74-1.22-1.48-1.39-1.16-.27-2.35-.43-3.5-.74-1.54-.42-2.34-1.33-2.39-2.65-.06-1.45,.66-2.46,1.95-3.04,2.15-.97,4.31-.73,6.45,.06,.49,.18,.76,.46,.41,1-.27,.42-.39,1.06-1.15,.7-1.24-.58-2.56-.71-3.89-.47-.8,.14-1.62,.43-1.63,1.45,0,.95,.78,1.22,1.52,1.4,1.2,.3,2.43,.49,3.62,.81,1.31,.35,2.2,1.16,2.25,2.6,.05,1.41-.73,2.33-1.93,2.91-.97,.47-2.02,.62-3.1,.62Z"/>
  <path class="cls-1" d="M475.04,454.18c-1.39,0-2.72-.29-3.99-.85-.53-.23-.94-.5-.53-1.19,.32-.52,.53-.98,1.3-.57,1.28,.69,2.69,.86,4.13,.72,.89-.09,1.9-.23,1.97-1.37,.07-1.12-.94-1.26-1.74-1.45-1.07-.26-2.18-.38-3.24-.68-1.54-.42-2.33-1.34-2.38-2.66-.05-1.45,.68-2.46,1.96-3.03,2.15-.96,4.31-.73,6.45,.07,.5,.19,.74,.48,.4,1-.27,.43-.4,1.04-1.16,.69-1.15-.54-2.38-.68-3.63-.51-.85,.11-1.76,.32-1.86,1.37-.11,1.11,.82,1.35,1.65,1.55,1.16,.28,2.34,.47,3.49,.78,1.25,.34,2.11,1.1,2.23,2.48,.11,1.27-.62,2.42-1.94,3.04-.98,.45-2.03,.62-3.1,.61Z"/>
  <path class="cls-1" d="M504,454.18c-1.44,0-2.8-.31-4.11-.92-.55-.25-.73-.58-.38-1.14,.28-.44,.43-1,1.17-.6,1.37,.72,2.86,.93,4.38,.75,.84-.1,1.78-.3,1.83-1.38,.05-1.05-.87-1.22-1.64-1.41-1.16-.28-2.35-.44-3.5-.75-1.26-.34-2.11-1.14-2.23-2.5-.11-1.38,.51-2.41,1.73-3.03,2.21-1.12,4.45-.86,6.69-.04,.52,.19,.7,.5,.38,1.01-.28,.44-.42,1.02-1.17,.66-1.2-.57-2.47-.68-3.76-.48-.8,.13-1.64,.37-1.72,1.36-.09,1.04,.76,1.31,1.54,1.51,1.2,.3,2.43,.49,3.62,.81,1.25,.34,2.12,1.11,2.22,2.49,.09,1.4-.64,2.36-1.84,2.97-1,.51-2.1,.67-3.22,.67Z"/>
  <path class="cls-1" d="M259.94,454.17c-3.22,.03-5.56-1.57-6.31-4.03-.79-2.59,.13-5.29,2.28-6.66,2.26-1.44,5.46-1.33,7.34,.26,1.07,.9,1.02,1.36-.09,1.91-.6,.3-.78-.15-1.1-.4-1.4-1.08-2.91-1.23-4.49-.49-1.43,.67-2.05,1.9-2.09,3.43-.04,1.58,.54,2.88,1.99,3.62,1.55,.79,3.07,.67,4.49-.37,.39-.29,.63-.81,1.33-.4,.83,.49,.97,.9,.24,1.58-1.13,1.06-2.47,1.5-3.59,1.54Z"/>
  <path class="cls-1" d="M235.78,451.54c1.16-2.64,2.31-5.26,3.47-7.88,.12-.28,.22-.59,.4-.83,.47-.61,1.19-.45,1.71-.25,.63,.24,.08,.77-.06,1.11-1.36,3.17-2.78,6.31-4.12,9.48-.33,.77-.75,1.04-1.58,1.05-.87,0-1.22-.37-1.53-1.11-1.31-3.09-2.7-6.15-4.01-9.24-.17-.4-.83-1.04-.12-1.29,.63-.23,1.58-.45,2.02,.62,1,2.41,2.03,4.8,3.08,7.19,.17,.38,.21,.86,.75,1.16Z"/>
  <path class="cls-1" d="M343.19,447.93c0-.58,0-1.15,0-1.73,0-1.02,.29-2.21-1.44-2.09-.53,.04-.5-.52-.5-.92,0-.4,.14-.76,.59-.69,1.32,.19,1.46-.57,1.35-1.57-.09-.8,.37-.96,1.05-.96,.66,0,1.2,.13,1.06,.94-.27,1.52,.57,1.71,1.75,1.57,.22-.02,.44,0,.66,0,.5-.01,.87,.1,.88,.71,.01,.56-.12,.93-.77,.99-.78,.06-1.83-.34-2.29,.26-.56,.71-.17,1.79-.2,2.71-.03,1.02-.02,2.04,0,3.05,.03,1.75,.87,2.47,2.54,2.06,.76-.19,1.18-.12,1.38,.66,.2,.79-.44,.86-.91,1.03-2.77,.98-5.06-.58-5.13-3.48-.02-.84,0-1.68,0-2.52Z"/>
  <path class="cls-1" d="M418.69,447.97c0-.75-.05-1.51,.01-2.26,.08-.97-.07-1.66-1.29-1.56-.6,.05-.67-.43-.68-.91,0-.58,.3-.81,.83-.75,1.01,.13,1.21-.41,1.12-1.26-.08-.74,.03-1.26,1.01-1.28,1.03-.02,1.22,.51,1.1,1.32-.15,1.06,.38,1.31,1.31,1.21,.44-.05,.88,0,1.33,0,.54,0,.65,.35,.65,.8,0,.43-.08,.8-.6,.86-.13,.01-.26,.02-.4,.03q-2.27,.19-2.27,2.53c0,1.19-.02,2.39,0,3.58,.04,1.65,.89,2.36,2.51,1.97,.72-.17,1.19-.21,1.4,.61,.22,.88-.49,.93-1,1.09-2.81,.92-4.99-.65-5.04-3.6-.01-.8,0-1.59,0-2.39Z"/>
  <path class="cls-1" d="M176.51,446c0,2.35-.03,4.69,.01,7.04,.02,.83-.2,1.18-1.11,1.17-.83-.01-1.05-.31-1.05-1.09,.03-4.78,.03-9.56,0-14.34,0-.77,.2-1.09,1.04-1.1,.9-.01,1.13,.32,1.11,1.16-.04,2.39-.01,4.78-.01,7.17Z"/>
  <path class="cls-1" d="M447.53,443.98c.9-.72,1.82-1.3,2.94-1.43,.53-.06,1.13-.22,1.11,.64-.01,.57,.23,1.22-.76,1.38-2.63,.44-3.41,1.43-3.43,4.1,0,1.41-.03,2.83,0,4.24,.02,.82-.08,1.31-1.11,1.29-.98-.01-1.04-.49-1.03-1.24,.02-3.09,0-6.18,0-9.27,0-.61-.14-1.26,.87-1.24,.76,.02,1.33,.09,1.23,1.05-.01,.11,.07,.24,.16,.47Z"/>
  <path class="cls-1" d="M222.12,444.01c.87-.79,1.82-1.32,2.94-1.46,.53-.07,1.13-.2,1.1,.65-.02,.58,.21,1.21-.77,1.37-2.61,.42-3.4,1.44-3.42,4.11,0,1.46-.04,2.91,.01,4.37,.03,.86-.25,1.15-1.13,1.14-.86,0-1.03-.35-1.02-1.11,.03-3.13,.01-6.27,.01-9.4,0-.62-.11-1.25,.88-1.23,.78,.02,1.31,.12,1.22,1.06-.01,.11,.08,.23,.17,.49Z"/>
  <path class="cls-1" d="M19.08,444.24c1.13-1.09,2.14-1.58,3.31-1.72,.46-.05,.95-.1,.93,.57-.02,.55,.31,1.25-.65,1.46-2.94,.65-3.52,1.41-3.52,4.42,0,1.41-.03,2.83,0,4.24,.02,.78-.3,.97-1.02,.97-.73,0-1.14-.11-1.13-1,.04-3.09,0-6.18,.03-9.27,0-.56-.39-1.36,.76-1.46,1.08-.09,1.44,.36,1.29,1.78Z"/>
  <path class="cls-1" d="M392.91,448.27c0-1.55,.04-3.1-.01-4.64-.03-.83,.2-1.18,1.11-1.17,.83,.01,1.06,.3,1.05,1.09-.03,3.18-.03,6.37,0,9.55,0,.77-.2,1.09-1.04,1.1-.89,.01-1.14-.32-1.12-1.16,.05-1.59,.01-3.18,.01-4.78Z"/>
  <path class="cls-1" d="M271.15,448.4c0,1.59-.04,3.19,.02,4.78,.03,.86-.36,1.03-1.11,1.02-.7,0-1.05-.16-1.04-.96,.03-3.27,.03-6.55,0-9.82,0-.8,.35-.94,1.04-.95,.76-.01,1.14,.17,1.11,1.02-.05,1.63-.02,3.27-.02,4.91Z"/>
  <path class="cls-1" d="M245.9,448.26c0-1.55,.03-3.1-.01-4.64-.03-.83,.21-1.18,1.11-1.16,.83,.01,1.05,.31,1.04,1.1-.03,3.18-.03,6.37,0,9.55,0,.78-.21,1.09-1.04,1.1-.9,.01-1.14-.33-1.11-1.16,.05-1.59,.01-3.18,.01-4.78Z"/>
  <path class="cls-1" d="M393.85,440.18c-.91-.12-1.42-.59-1.37-1.41,.05-.87,.64-1.36,1.5-1.29,.78,.06,1.32,.56,1.28,1.39-.05,.89-.65,1.27-1.41,1.31Z"/>
  <path class="cls-1" d="M269.94,440.17c-.85-.1-1.37-.56-1.33-1.38,.03-.88,.62-1.37,1.48-1.32,.78,.05,1.33,.53,1.3,1.37-.03,.89-.61,1.3-1.45,1.33Z"/>
  <path class="cls-1" d="M246.75,440.17c-.85-.14-1.34-.62-1.27-1.43,.07-.87,.67-1.35,1.54-1.26,.78,.08,1.31,.58,1.24,1.42-.07,.89-.67,1.27-1.5,1.26Z"/>
  <path class="cls-1" d="M77.06,440.18c-.91-.07-1.45-.51-1.46-1.32,0-.88,.56-1.4,1.42-1.38,.78,.01,1.35,.48,1.36,1.31,.01,.9-.56,1.31-1.33,1.39Z"/>
</svg>