<?xml version="1.0" encoding="UTF-8"?>
<svg id="Capa_1" data-name="Capa 1" xmlns="http://www.w3.org/2000/svg" viewBox="0 0 512 512">
  <defs>
    <style>
      .cls-1 {
        fill: #564b42;
      }
    </style>
  </defs>
  <path class="cls-1" d="M362.46,111.25c.02,17.7-4.97,38.28-17.39,56.65-14.89,22.02-35.71,35.66-61.42,41.62-26.01,6.03-51.45,3.59-75.67-7.85-24.72-11.68-41.36-30.92-50.8-56.43-6.14-16.6-8.11-33.86-7.56-51.45,.54-17.31,3.12-34.27,9.26-50.57,1.23-3.28,2.71-6.44,4.3-9.56,.63-1.23,1.1-1.31,2.28-.68,5.59,3.03,11.51,4.05,17.79,2.63,4.93-1.12,8.53-4.2,11.95-7.71,8.33-8.56,17.02-16.71,28.16-21.6,8.34-3.66,17.21-4.88,26.23-5.41,13.05-.77,26.05-.62,38.76,2.74,37.37,9.87,60.87,33.56,70.39,71.02,2.69,10.61,3.67,21.42,3.73,36.6Zm-71.76,75.76c3.77-1.51,7.1-3.14,10.28-5.03,27.22-16.17,42.53-39.91,44.35-71.61,1.23-21.41-5.36-40.79-18.23-57.86-13.86-18.38-32.32-28.71-55.48-30.12-7.96-.48-15.93,.12-23.9,.02-13.49-.17-25.13,4.54-35.28,13.2-3.7,3.16-7.06,6.66-10.19,10.86h1.62c10.02,0,20.05,0,30.07,0,4.98,0,9.94,.36,14.81,1.41,6.08,1.31,11.8,3.45,16.18,8.11,5.74,6.1,6.68,13.6,5.75,21.46-.88,7.41-4.33,13.39-10.71,17.51-.25,.16-.72,.3-.4,.93h2.33c22.75,0,45.51,0,68.26,0,.51,0,1.03,.04,1.54,0,1.08-.09,1.2,.4,.95,1.32-1.18,4.28-2.33,8.58-3.48,12.87-.22,.82-.48,1.44-1.58,1.36-.96-.07-1.62-.11-1.84-1.3-.41-2.18-1.93-3.5-3.87-4.44-2.83-1.38-5.88-1.71-8.95-1.83-5.04-.19-10.09-.3-14.94,1.52-1.51,.56-2.23,1.41-2.21,3.22,.1,12.13,.06,24.27,.04,36.4,0,1.16-.1,2.34-.3,3.48-.39,2.29-1.43,4.17-3.84,4.85-.94,.26-.99,.81-.99,1.59,.02,10.59,.01,21.19,.01,32.07Zm-69.08-85.31c0,16.74,.01,33.19-.04,49.63,0,.73,.69,2.05-.61,2.16-1.16,.1-2.56,.72-3.58-.74-2.01-2.86-4.79-4.88-7.78-6.62-3.76-2.19-7.74-3.77-12.13-4.07-.78-.05-1.52-.2-1.31-1.24,.13-.65-.57-1.64,.85-1.82,4.05-.53,5.91-3.41,7.09-6.9,1.43-4.2,1.66-8.6,1.67-12.97,.08-17.84,.07-35.67,0-53.51-.02-4.39-.48-8.75-2.72-12.7-1.27-2.25-2.99-3.73-5.77-3.52-1.38,.11-2.77,.11-4.16,.19-5.02,.27-9.33,2.18-12.97,5.63-4.48,4.23-7.15,9.54-8.99,15.3-4.3,13.47-4.77,27.26-3.1,41.17,2.85,23.74,12.07,44.54,29.43,61.27,20.13,19.39,44.12,25.83,71.44,20.5,3.15-.61,5.27-2.4,6.67-5.14,1.69-3.3,2.39-6.87,2.74-10.52,.66-6.86,.25-13.73,.34-20.59,.05-3.83-.03-4.16-3.71-3.75-5.94,.66-10.5-1.62-14.51-5.63-.83-.83-1.72-1.59-2.54-2.42-12.2-12.27-22.76-25.88-32.44-40.18-.94-1.39-1.93-2.7-3.86-3.52Zm-2.49-25.54v10.08c0,5.12-.01,5.24,5.17,5.72,7.08,.66,14.16,.79,21.05-1.48,4.51-1.48,8.33-3.88,10.63-8.22,5.3-10,.67-21.82-10.02-25.54-1.51-.53-3.07-.96-4.64-1.26-5.73-1.1-11.31-1.35-16.16,2.85-1.26,1.09-2.88,1.8-4.51,2.15-1.33,.28-1.56,.9-1.55,2.09,.06,4.53,.02,9.06,.02,13.59Zm59.57,67.87c0-10.4-.04-20.09,.04-29.78,.02-1.93-.1-3.43-2.31-4.07-.78-.22-1.4-1.01-2.09-1.55-3.07-2.43-6.32-4.53-10.38-4.65-2.92-.09-5.85-.04-8.76,.14-2.98,.19-5.97,.51-8.64,2.09-1.52,.9-1.9,1.72-.62,3.37,7.42,9.52,15.52,18.4,24.24,26.73,2.62,2.5,5.37,4.87,8.52,7.72Z"/>
  <g>
    <path class="cls-1" d="M61.37,288.78c2.66,5.17,6.02,9.47,9.47,13.7,6.02,7.38,12.36,14.46,19.8,20.47,4.05,3.27,5.31,3.17,8.99-.65,4.31-4.47,6.57-10.07,8.44-15.84,5.68-17.49,11.36-34.97,17-52.47,.42-1.31,.97-1.91,2.47-2.05,2.55-.24,4.66-1.78,6.93-3.27,2.22,6.86,4.39,13.61,6.6,20.34,4.95,15.08,9.63,30.26,15.15,45.15,1.11,2.98,2.5,5.81,4.52,8.29,1.11,1.36,2.41,2.58,4.15,2.94,1.15,.24,1.06,.87,1.07,1.68,.02,1.14-.75,1.01-1.47,1-.07,0-.15,0-.22,0-3.1,.43-5.31-.23-7.2-3.28-2.51-4.05-6.46-6.77-11.4-7.45-1.23-.17-1.29-.96-1.54-1.73-1.35-4.24-2.69-8.49-3.95-12.76-.39-1.32-.86-1.98-2.46-1.94-5.55,.13-11.11,.09-16.66,.02-1.32-.02-1.84,.38-2.22,1.65-2.4,7.9-4.94,15.76-7.35,23.66-.43,1.41-1.03,1.88-2.55,1.86-8.44-.09-16.88-.11-25.32,0-2.34,.03-4.19-.73-5.9-2.16-3.38-2.84-6.29-6.13-9.1-9.51-6.02-7.28-11.54-14.92-16.69-22.83-.34-.52-.36-1.81-1.58-1.13-.89,.5-1.99,.56-1.96,2.26,.13,10.45,.08,20.9,.04,31.35,0,.66,.56,1.72-.63,1.95-.9,.18-1.7,.07-2.44-.85-3.36-4.23-7.8-6.72-13.12-7.61-.68-.11-1.43,.08-1.44-1.08,0-.98,.45-1.14,1.24-1.33,2.38-.57,3.48-2.43,4.19-4.54,1.1-3.24,1.3-6.63,1.31-10.01,.03-13.19,.01-26.38,0-39.57,0-2.53-.26-5.04-1.03-7.46-.8-2.5-2.13-4.58-4.97-5.15-.5-.1-.98-.14-.93-.88,.06-.81,.63-.66,1.09-.65,10.95,.25,21.92-.57,32.86,.48,2.02,.19,3.97,.72,5.88,1.36,8.32,2.81,12.56,9.34,12.33,18.16-.33,12.73-8.44,18.96-20.06,19.8-.36,.03-.71,.04-1.38,.08Zm-14.46-18.02c0,3.24,.02,6.47,0,9.71,0,.94,.04,1.67,1.27,1.8,5.24,.57,10.47,.94,15.64-.47,5.9-1.61,9.26-5.36,9.82-11.14,.52-5.37-.73-10.28-5.78-12.93-5.22-2.74-10.79-4.66-16.35-.38-.9,.69-1.94,1.3-3.02,1.62-1.4,.42-1.64,1.21-1.6,2.52,.09,3.09,.03,6.19,.03,9.28Zm82.83,23.7c2.81,0,5.62-.05,8.43,.02,1.54,.04,1.91-.55,1.49-1.95-2.9-9.69-5.78-19.39-8.69-29.08-.21-.71-.35-1.8-1.32-1.73-.74,.05-.91,1.03-1.11,1.71-2.84,9.78-5.66,19.58-8.52,29.36-.37,1.26-.02,1.7,1.27,1.68,2.81-.05,5.62-.01,8.43-.01Z"/>
    <path class="cls-1" d="M243.12,250.89c-2.98,1.98-3.47,5.07-3.71,8.16-.22,2.79-.11,5.62-.11,8.43,0,19.32,0,38.63,0,57.95,0,.71,0,1.42,0,2.46-2.54-1.73-4.87-3.39-7.76-3.78-.64-.09-1.38-.38-1.91-.17-2.34,.92-3.24-.58-4.37-2.16-6.24-8.73-12.58-17.38-18.86-26.08-1.28-1.77-3.27-2.56-4.97-3.73-1.03-.71-1.88-1.5-2.58-2.53-4.29-6.38-8.61-12.74-13.39-19.1,0,1.22,0,2.44,0,3.66,.05,17.58,.09,35.16,.12,52.75,0,.56,.36,1.41-.71,1.47-.92,.05-1.74,.12-2.42-.9-2.36-3.52-5.62-5.93-9.7-7.17-.75-.23-1.54-.4-2.32-.49-.79-.08-.91-.51-.87-1.17,.03-.57-.07-1.08,.78-1.23,2.76-.49,3.78-2.66,4.46-5.01,.86-3,.98-6.1,.97-9.2,0-15.42,.02-30.85-.04-46.27,0-1.44,.3-2.15,1.78-2.53,3.39-.86,6.05-2.91,8.28-5.84,3.63,5.09,7.16,10.05,10.69,15.01,9.52,13.37,19.06,26.73,28.51,40.14,1.11,1.58,2.69,2.31,4.2,3.26,.76,.48,.99,.11,.99-.67-.01-5.33,0-10.67-.02-16,0-.42-.07-.97-.33-1.22-2.04-1.89-1.5-4.34-1.52-6.66-.07-7.28-.09-14.55-.18-21.83-.03-1.95-.48-3.84-1.21-5.66-.85-2.11-2.12-3.75-4.47-4.28-.58-.13-1.19-.19-1.05-1.03,.13-.76,.75-.53,1.2-.54,5.55-.01,11.11-.01,16.66,0,1.59,0,2.47,1.36,3.84,1.99Z"/>
    <path class="cls-1" d="M349.43,251.23c-2.81,1.63-3.17,4.26-3.53,6.82-.71,5.02-.28,10.07-.37,15.11-.04,2.31,.03,4.61-.02,6.92-.03,1.04,.18,1.56,1.4,1.56,10.82-.04,21.65,0,32.47-.05,2.55-.01,2.94-.54,2.94-3.15,.01-9.23,.04-18.45-.03-27.68-.01-1.52,.4-1.93,1.91-1.91,5.05,.09,10.1,.02,15.15,.06,.5,0,1.22-.37,1.51,.38,.23,.6-.17,1.13-.5,1.58-.29,.4-.65,.81-1.08,1.04-3.82,2.02-4.88,5.51-4.94,9.42-.09,6.77-.03,13.55-.03,20.33,0,10.89,.04,21.77-.02,32.66-.02,4.58,.88,8.6,5.43,10.88,.57,.28,.97,.82,1.23,1.46,.4,.97,.32,1.44-.91,1.43-5.05-.04-10.1-.01-15.15-.02-1.69,0-2.57-1.44-4.07-2.22,2.73-1.66,3.29-4.35,3.53-7.03,.88-9.78,.22-19.59,.43-29.38,.02-1.02-.45-1.17-1.3-1.17-12.47,.02-24.95,.01-37.71,.01,2.55,3.25,1.85,6.81,1.67,10.28-.44,8.55-1.2,17.1-.3,25.67,.13,1.21,.43,2.4,.68,3.73-2.15,.21-3.93-.82-5.61-2-1.53-1.08-2.94-2.32-4.41-3.48-2.02-1.59-4.31-2.53-6.86-2.93-.54-.08-1.42,.42-1.59-.54-.13-.71,.08-1.43,.59-2.01,.09-.11,.2-.23,.32-.28,5.59-2.51,5.47-7.68,5.59-12.53,.19-7.85,.05-15.71,.05-23.57,0-6.7-.02-13.41,0-20.11,.02-3.83-1.11-6.92-4.94-8.53-.57-.24-1.07-.73-1.47-1.22-.35-.43-.69-1.07-.38-1.6,.27-.48,.92-.23,1.4-.23,4.83-.01,9.67,.04,14.5-.04,1.92-.03,2.87,1.39,4.39,2.37Z"/>
    <path class="cls-1" d="M409.86,288.83c.15-11.48,2.89-22.08,10.93-30.75,5.34-5.76,12.03-9.05,19.78-10.1,8.75-1.18,17.22-.17,25.33,3.49,1.92,.86,2.89,1.63,1.97,4.1-1.24,3.36-.47,6.63,2.04,9.41,1.74,1.92,3.35,3.95,5,5.96,4.53,5.54,6.34,11.99,6.43,19.04,.08,5.95-.52,11.79-2.51,17.43-3.91,11.11-11.49,18.25-23.06,20.82-12.27,2.72-23.7,1.19-33.3-7.64-6.95-6.39-10.56-14.59-12.08-23.79-.43-2.64-.6-5.29-.54-7.98Zm12.01-2.32c0,12.43,2.95,22.19,8.31,28.94,5.1,6.43,11.69,9.17,19.84,7.54,9.43-1.88,14.69-8.19,17.51-16.91,2.42-7.47,1.89-15.22,1.95-22.91,.05-6.06-1.6-11.37-6.65-15.18-.7-.53-.65-1.13-.6-1.89,.31-5.06-1.77-8.47-6.54-10.2-8.21-2.98-19.39-1.92-26.16,6.87-5.81,7.54-7.43,16.35-7.66,23.75Z"/>
    <path class="cls-1" d="M310.11,266.88c-1.79-7.51-6.47-11.55-14.69-12.73-12.08-1.73-21.88,3.41-26.38,14.73-6.37,16.03-4.92,31.39,6.03,45.13,6.82,8.56,17.76,11.05,27.47,6.86,5.21-2.25,8.81-5.89,9.71-11.84,2.62,1.21,3.45,3.35,3.54,5.96,.1,2.64-.56,5.31,.49,7.91,.38,.94-.62,1.22-1.13,1.59-3.04,2.23-6.59,3.18-10.22,3.84-9.75,1.76-19.42,1.87-28.53-2.65-13.28-6.59-20.21-17.77-22.3-32.12-1.57-10.8,.4-21,6.71-30.02,8.31-11.89,20.04-16.79,34.35-15.89,6.99,.44,13.68,1.92,19.48,6.17,1.4,1.02,2.94,2,1.19,4.01-.29,.33-.31,.95-.34,1.45-.22,3.65-2.57,5.75-5.38,7.61Z"/>
  </g>
  <g>
    <path class="cls-1" d="M437.04,396.81c2.41,4.23,2.46,8.47,2.42,12.75-.05,5.68,0,11.36-.02,17.04,0,1.66,.11,3.3,.72,4.85,.75,1.92,2.15,3.18,4.28,3.18,5.92-.01,11.85,.35,17.77-.44,4.74-.63,8.33-2.52,9.24-7.89,2.44,1.29,2.76,3.52,3.12,5.63,.34,1.96,.56,3.91,2.04,5.42,.21,.21,.45,.35,.33,.79-.43,1.48-4.54,4.63-6.15,4.63-14.26,0-28.51-.03-42.77,.04-1.86,.01-2.31-.49-2.3-2.33,.07-23.87,.04-47.75,.05-71.62,0-3.05-.09-6.09-1.06-9.02-.66-2-1.83-3.45-4.03-3.9-.79-.16-1.63-.4-2.18-1.06-.54-.65-.88-1.46-.66-2.29,.28-1.06,1.25-.53,1.87-.53,15.99-.03,31.97-.03,47.96-.02,1.37,0,4.2,2.15,4.4,3.33,.03,.19-.04,.53-.18,.61-2.27,1.45-2.31,4.03-3.18,6.19-.3,.75-.67,1.5-1.12,2.18-.35,.55-.87,1.16-1.55,1.08-.69-.08-.58-.9-.72-1.41-.62-2.26-2.28-3.53-4.37-3.89-6.88-1.17-13.78-1.04-20.53,.86-2.94,.83-3.83,2.33-3.83,5.27-.02,7,.05,13.99-.04,20.99-.02,1.6,.39,2.06,2.02,2.03,6.43-.1,12.86,.08,19.28-.1,2.69-.08,3.51,2.08,5.1,3.33,.16,.12,.31,.35-.01,.56-2.45,1.62-2.26,4.63-3.61,6.83-.39,.63-.71,1.32-1.2,1.85-.79,.87-1.47,1.3-1.95-.4-.7-2.46-2.65-3.78-5.05-4.17-4.55-.73-9.13-.25-14.06-.38Z"/>
    <path class="cls-1" d="M138.95,396.81c2.2,3.75,2.47,7.39,2.42,11.12-.07,6.09,0,12.18-.03,18.27,0,1.58,.13,3.14,.57,4.63,.66,2.23,2.08,3.81,4.57,3.81,5.76,0,11.52,.28,17.27-.38,4.95-.57,8.69-2.46,9.72-8.01,2.05,1.23,2.59,3.08,2.93,4.97,.39,2.18,.52,4.43,2.18,6.16,.15,.16,.32,.39,.32,.58,0,.84-4.29,4.79-5.23,4.8-14.83,.01-29.65-.01-44.48,.03-1.82,0-1.43-1.15-1.43-2.15,0-14.81,.04-29.62-.02-44.44-.04-10.53,.25-21.06-.18-31.59-.07-1.82-.42-3.59-1.08-5.29-.66-1.7-1.81-2.89-3.66-3.34-.79-.19-1.62-.37-2.22-1-.66-.7-1.07-1.61-.81-2.47,.26-.91,1.27-.47,1.93-.47,15.9-.02,31.8,.05,47.69-.08,2.59-.02,3.17,1.93,4.48,3.24,.12,.12,.15,.57,.06,.63-2.78,1.85-2.42,5.28-3.92,7.75-.33,.55-.78,1.06-1.26,1.49-.58,.52-1.09,.68-1.31-.41-.73-3.68-3.64-4.77-6.77-5-5.58-.41-11.19-.42-16.7,.81-4.33,.97-5.5,2.48-5.5,6.81,0,6.5,.1,13-.06,19.5-.05,2.16,.65,2.54,2.62,2.5,6.09-.13,12.2,.16,18.28-.14,2.8-.13,3.78,1.93,5.49,3.16,.28,.2,.38,.53,0,.79-2.18,1.5-2.16,4.14-3.25,6.21-.34,.65-.63,1.36-1.08,1.93-.88,1.11-1.7,2.3-2.51-.23-.85-2.64-3.17-3.66-5.76-3.96-4.26-.49-8.54-.14-13.27-.24Z"/>
    <path class="cls-1" d="M342.45,442.77c-2.28,.73-3.61-.67-5.04-2.83-3.27-4.94-7.74-8.51-13.77-9.57-1.28-.22-1.54-.89-1.84-1.86-1.49-4.86-3.07-9.69-4.51-14.57-.45-1.55-1.05-2.22-2.85-2.18-6.34,.14-12.68,.12-19.02,0-1.65-.03-2.26,.56-2.71,2.02-2.76,9.02-5.64,18-8.37,27.02-.46,1.5-1.07,2.04-2.69,2.01-5.27-.12-10.54-.04-15.81-.05-.7,0-1.61,.22-1.6-.95,0-.84-.36-1.86,.98-2.16,3.74-.85,5.95-3.67,8.07-6.5,4.26-5.69,6.28-12.39,8.44-19.03,6.11-18.79,12.24-37.58,18.31-56.38,.43-1.33,1-1.99,2.49-2.1,2.35-.16,4.44-1.29,6.28-2.66,1.54-1.14,2.03-.78,2.56,.88,3.93,12.26,7.9,24.51,11.9,36.74,4.01,12.24,7.9,24.52,12.45,36.58,1.28,3.4,2.89,6.63,5.32,9.37,1.26,1.42,2.64,2.76,4.64,3.07,1.34,.2,1.11,1.17,1.13,2.06,.03,1.11-.7,1.11-1.49,1.09-.82-.02-1.65,0-2.88,0Zm-37.18-38.38c3.21,0,6.42,0,9.62,0,1.33,0,2.34-.3,1.83-2.01-3.39-11.29-6.77-22.59-10.17-33.89-.21-.7-.39-1.66-1.22-1.67-.97-.01-1.14,1-1.37,1.78-3.25,11.17-6.49,22.34-9.75,33.5-.53,1.8,.18,2.35,1.93,2.31,3.04-.08,6.09-.02,9.13-.02Z"/>
    <path class="cls-1" d="M251.71,420.88c2.61,1.32,3.79,3.39,3.96,6.16,.2,3.26-.62,6.57,.61,9.79,.39,1.03-.71,1.37-1.33,1.8-3.86,2.73-8.33,3.83-12.89,4.57-8.52,1.38-17.04,1.68-25.41-.92-12.11-3.75-20.97-11.47-26.51-22.79-6.72-13.74-7.63-27.94-1.86-42.21,7.01-17.32,22.86-27.36,41.54-26.74,6.63,.22,13.08,1.25,19.16,4.03,1.34,.61,2.66,1.3,3.89,2.11,1.23,.81,2.49,1.67,3.46,2.76,1.25,1.4-.85,2.3-.84,3.64,.05,4.23-2.45,6.99-5.66,9.27-.19,.13-.42,.2-.85,.39-.23-3.76-1.66-6.87-4.46-9.29-3.67-3.16-8.03-4.79-12.75-5.4-13.33-1.73-24.12,3.93-29.23,16.32-7.67,18.57-6.08,36.39,6.72,52.37,7.37,9.21,18.66,12.12,29.57,8.37,6.84-2.35,11.62-6.68,12.87-14.23Z"/>
    <path class="cls-1" d="M111.28,352.15c-1.02,4-2.04,7.88-2.98,11.77-.19,.78-.46,1.15-1.27,1.13-.69-.02-1.21,0-1.45-.9-.86-3.29-3.53-4.36-6.47-4.89-4.66-.84-9.32-.86-13.96,.27-2.33,.57-3.51,1.64-3.46,4.42,.2,9.87,.09,19.75,.07,29.63,0,2.9,.06,5.85-3.39,7.21-.97,.38-.54,1.46-.55,2.23-.02,12.43,0,24.86-.05,37.29,0,.82,.73,2.1-.83,2.43-1.29,.27-2.03-.29-2.78-1.42-2.98-4.52-7.11-7.44-12.49-8.48-.66-.13-1.49,.07-1.46-1.14,.02-1,.49-1.21,1.3-1.39,2.52-.57,3.78-2.46,4.69-4.66,1.4-3.39,1.93-6.98,1.94-10.61,.04-16.05,0-32.1,.04-48.15,0-1.29-.13-2.25-1.57-2.57-.22-.05-.45-.24-.61-.41-5.53-6.1-12.57-5.46-19.7-4.41-2.81,.41-5.02,1.68-5.74,4.63-.22,.92-.7,.91-1.38,.93-.79,.03-1.14-.23-1.33-1.04-.87-3.59-1.82-7.16-2.76-10.73-.27-1.03,.14-1.36,1.11-1.25,.24,.03,.49,0,.74,0,24.22,0,48.45,0,72.67,0,.48,0,.97,.07,1.64,.11Z"/>
    <path class="cls-1" d="M409.3,352.12c-1,4-1.97,7.82-2.91,11.64-.17,.67-.3,1.32-1.19,1.28-.62-.03-1.37,.23-1.59-.72-.78-3.51-3.57-4.52-6.56-5.06-4.65-.84-9.33-.85-13.95,.31-2.3,.58-3.47,1.67-3.41,4.42,.2,10.04,.08,20.08,.08,30.12,0,2.81-.17,5.48-3.39,6.7-1.04,.39-.55,1.45-.55,2.19-.03,12.43,0,24.86-.06,37.28,0,.82,.74,2.1-.75,2.46-1.23,.29-2.04-.21-2.8-1.36-2.97-4.51-7.07-7.48-12.47-8.51-.54-.1-1.43,.11-1.42-.94,0-.67-.07-1.32,.84-1.51,3.53-.72,4.73-3.54,5.68-6.49,1.04-3.23,1.37-6.6,1.38-9.98,.04-15.56,0-31.11,.05-46.67,0-1.44-.08-2.57-1.7-2.99-.22-.06-.44-.25-.6-.43-5.8-6.34-13.13-5.4-20.45-4.2-2.36,.39-4.32,1.71-4.86,4.31-.17,.84-.54,1.04-1.31,1.09-.92,.06-1.35-.31-1.56-1.16-.86-3.51-1.71-7.02-2.63-10.51-.4-1.5,.49-1.37,1.44-1.37,5.27,.01,10.55,0,15.82,0,19.2,0,38.39,0,57.59,0,.32,0,.65,.04,1.27,.08Z"/>
  </g>
  <g>
    <path class="cls-1" d="M48.61,490.73c0-5.65,.02-11.31-.03-16.96,0-.79,.01-1.31,.93-1.43,5.96-.77,11.93-1.4,17.86,.17,9.49,2.5,14.3,9.61,13.64,19.48-.78,11.68-9.64,17.21-18.03,18.06-4.31,.43-8.55,.06-12.79-.72-1.32-.24-1.6-.82-1.59-2.04,.06-5.52,.02-11.04,.02-16.55h-.02Zm5.08-.01c0,4.5,.08,9-.04,13.5-.05,1.61,.51,2.11,2.01,2.27,1.98,.2,3.95,.3,5.92,.14,6.82-.55,11.51-4.18,13.29-10.27,.88-2.99,.95-6.09,.47-9.12-.89-5.63-4.22-9.31-9.62-11.1-3.5-1.16-7.11-1.1-10.74-.9-1.25,.07-1.32,.79-1.31,1.78,.03,4.57,.02,9.14,.02,13.71Z"/>
    <path class="cls-1" d="M204.46,483.35c0-4.34,.1-8.56-.04-12.78-.08-2.41,1.81-1.49,2.84-1.89,1.14-.45,1.95,.04,1.94,1.47-.02,2.52,.05,5.04,.05,7.56,0,8.11,0,16.23,0,24.34,0,2.16-.1,4.36,2.81,4.85,.6,.1,.78,.66,.56,1.11-.52,1.1-1.06,2.31-2.54,2.34-1.8,.04-3.46-.53-4.38-2.13-.61-1.04-.97-.92-1.79-.33-2.57,1.84-5.43,2.79-8.64,2.41-5.05-.6-8.79-3.91-10.03-8.86-3.02-12.11,6.87-21.55,19.21-18.09Zm.07,12.36v-5.1c0-3.59-.41-4.06-3.99-4.63-.95-.15-1.89-.13-2.84,.08-5.82,1.27-9.12,7.3-7.51,13.75,1.54,6.2,7.81,8.56,13.1,4.96,.86-.58,1.32-1.19,1.27-2.31-.1-2.24-.03-4.49-.03-6.74Z"/>
    <path class="cls-1" d="M365.35,490.51c1.22,.81,2.39,1.51,3.48,2.32,3.21,2.38,4.86,5.49,4.12,9.56-.69,3.82-3.22,6.04-6.75,7.2-3.84,1.27-7.68,1.22-11.33-.62-5.65-2.85-6.58-9.89-1.92-14.13,1.36-1.23,2.84-2.33,4.41-3.62-3.18-1.89-5.38-4.55-5.51-8.4-.08-2.53,.79-4.8,2.61-6.66,3.73-3.82,10.81-4.03,14.45-.31,2.22,2.26,2.87,5.02,2.07,8.11-.8,3.08-3.43,4.61-5.64,6.54Zm2.86,10.37c-.12-.46-.19-1.31-.54-2.01-1.42-2.86-4.18-4.15-6.8-5.57-.47-.26-.79,.07-1.09,.31-1.69,1.27-3.27,2.68-4.32,4.55-1.22,2.17-.84,4.97,.85,6.81,1.78,1.96,5.16,2.66,7.94,1.66,2.37-.86,3.97-3.03,3.96-5.73Zm-1.42-18.87c.02-3.38-1.95-5.42-5.23-5.4-3,.02-5.18,2.26-5.2,5.35-.02,2.5,3.63,6.73,5.77,6.7,1.64-.02,4.65-4.32,4.66-6.66Z"/>
    <path class="cls-1" d="M418.69,488.46c-.06,11.36-7.35,20.88-17.57,22.9-.76,.15-1.48,.23-2.21-.04-.87-.33-1.75-.91-1.79-1.78-.05-.97,1.1-.72,1.74-.9,11.52-3.19,17.83-15.94,13.44-27.19-1.26-3.23-3.34-4.78-6.21-4.64-2.57,.12-4.63,2.09-5.48,5.28-.47,1.75-.44,3.53-.05,5.27,.85,3.81,4.34,5.69,8.43,4.4,1.7-.54,1.52,.13,1.3,1.27-.24,1.25-1.11,1.8-2.18,2.19-6.62,2.39-12.55-2-12.93-9.57-.43-8.54,7.75-14.66,15.78-11.71,4.9,1.8,6.59,5.98,7.42,10.66,.22,1.27,.22,2.58,.33,3.87Z"/>
    <path class="cls-1" d="M454.98,489.76c4.33,1.21,7.35,3.38,8.2,7.73,.81,4.18-.42,7.73-3.73,10.37-4.46,3.55-9.67,4.07-15.11,3.21-.71-.11-1.51-.43-2.01-.91-.83-.8-1.73-1.97-1.19-3.03,.39-.77,1.56,.1,2.36,.28,3.48,.8,6.9,.8,10.17-.82,3.22-1.6,4.95-4.94,4.36-8.24-.56-3.13-3.1-5.22-6.92-5.53-1.42-.12-2.86-.02-4.29,.05-1.01,.05-1.26-.31-.82-1.19,.52-1.04,1.03-1.93,2.39-2.26,2.34-.57,4.48-1.64,6.04-3.58,1.46-1.81,1.76-3.83,.79-5.92-.98-2.14-2.88-2.74-5.08-2.68-1.91,.05-3.57,.75-5.09,1.87-.7,.52-1.51,1.24-2.27,.17-.66-.93-.56-1.86,.32-2.74,3.05-3.04,9.04-4.18,12.96-2.41,5.13,2.31,6.41,8.62,2.6,12.78-.97,1.06-2.1,1.92-3.69,2.88Z"/>
    <path class="cls-1" d="M113.51,496.85c-.96,0-1.91,.03-2.87,0q-3.1-.1-2.43,2.85c1.15,5.05,5.5,7.74,11.07,6.79,1-.17,2-.41,2.97-.73,1.09-.36,1.26,.08,.96,.97-.59,1.75-1.8,2.79-3.62,3.22-10.27,2.42-17.96-4.59-16.51-15.09,.91-6.62,4.27-10.87,9.58-12.12,6.82-1.61,12.32,2.75,12.43,9.73,.03,1.91-.81,2.91-2.47,3.47-2.97,1.01-6.05,.86-9.11,.92Zm.72-3.48c1.43,0,2.86,0,4.28,0,1.01,0,1.67-.38,1.78-1.51,.31-3.34-2.25-6.02-5.65-6.07-3.42-.05-6.08,3.76-6.4,6.85-.08,.74,.4,.74,.89,.74,1.7,0,3.4,0,5.1,0Z"/>
    <path class="cls-1" d="M244.44,496.86c-1.44,0-2.33,.02-3.21,0-3.45-.1-3.46-.08-2.61,3.26,1.16,4.56,5.43,7.16,10.64,6.43,1.14-.16,2.29-.41,3.37-.8,1.15-.41,1.24,.17,.97,.94-.51,1.47-1.45,2.55-3.02,3.07-9.43,3.11-17.96-3.5-17.26-13.43,.22-3.16,.84-6.2,2.74-8.85,2.92-4.07,6.94-5.61,11.79-4.84,4.96,.79,8.61,6.41,7.47,11.22-.25,1.07-1.06,1.49-1.97,1.87-3.06,1.29-6.29,1.01-8.93,1.12Zm0-3.48s0,0,0-.01c1.5,0,2.99,.01,4.49,0,.9,0,1.54-.3,1.7-1.35,.45-2.96-1.88-5.97-4.87-6.2-3.48-.27-6.97,3.04-7.17,6.7-.05,.85,.36,.87,.95,.87,1.63,0,3.27,0,4.9,0Z"/>
    <path class="cls-1" d="M156.74,482.49c1,0,2.48,.34,3.87,1.18,1.09,.66,1.06,1.43,.59,2.4-.47,.97-1.18,1.31-2.16,.83-1-.49-2.04-.77-3.13-.86-1.76-.14-3.05,.61-3.72,2.25-.68,1.68-.23,3.12,1.29,4.08,1.78,1.13,3.64,2.13,5.44,3.22,3.64,2.21,4.93,4.62,4.18,8.26-.73,3.54-3.16,5.39-6.57,6.17-3.2,.74-6.21,.32-9.08-1.27-1.24-.68-1.56-1.57-.85-2.84,.71-1.28,1.58-.98,2.56-.4,1.76,1.04,3.68,1.43,5.69,1.2,1.79-.2,3.01-1.15,3.52-2.93,.5-1.72-.29-2.92-1.63-3.81-1.65-1.08-3.37-2.05-5.05-3.08-3.89-2.38-5.15-5.09-4.09-8.8,1-3.49,4.36-5.71,9.13-5.62Z"/>
    <path class="cls-1" d="M321.31,491.53c0,5.31,0,10.63,0,15.94,0,.79,.2,1.74-.82,2.09-1.31,.45-2.71,.63-4.02,.25-.58-.17-.27-1.11-.27-1.69,.03-9.13,.03-18.26,.17-27.39,.03-1.85-.34-2.26-2.06-1.46-2.03,.95-4.19,1.6-6.37,2.12-.38,.09-.77,.4-1.14,.04-.47-.47,0-.86,.15-1.28,.5-1.35,1.37-2.16,2.8-2.67,2.94-1.05,5.8-2.33,8.67-3.55,2.18-.93,2.7-.65,2.7,1.65,.01,5.31,0,10.62,0,15.94,.07,0,.13,0,.2,0Z"/>
  </g>
</svg>